<svg xmlns="http://www.w3.org/2000/svg" xmlns:xlink="http://www.w3.org/1999/xlink" viewBox="0 0 500 500"><defs><clipPath id="freepik--clip-path--inject-105"><rect x="289.22" y="255.67" width="147.56" height="106.57" style="fill:#fff;stroke:#263238;stroke-linecap:round;stroke-linejoin:round"></rect></clipPath><clipPath id="freepik--clip-path-2--inject-105"><rect x="83.37" y="86.8" width="209.06" height="150.99" style="fill:#fff;stroke:#263238;stroke-linecap:round;stroke-linejoin:round"></rect></clipPath></defs><g id="freepik--background-simple--inject-105"><path d="M76.21,198.15s-16,68.58,28.66,128.34,122.63,83,185.27,103.45,121.31-3.17,143.32-55.81-22.45-81-32.25-149.75-2-88.55-47.7-140.9-139.55-51.1-203,2.64S76.21,198.15,76.21,198.15Z" style="fill:#991B1B"></path><path d="M76.21,198.15s-16,68.58,28.66,128.34,122.63,83,185.27,103.45,121.31-3.17,143.32-55.81-22.45-81-32.25-149.75-2-88.55-47.7-140.9-139.55-51.1-203,2.64S76.21,198.15,76.21,198.15Z" style="fill:#fff;opacity:0.7000000000000001"></path></g><g id="freepik--Graphics--inject-105"><polygon points="328.6 252.65 324.47 246.06 288.11 246.06 288.11 252.65 288.11 255.02 288.11 364.63 437.76 364.63 437.76 252.65 328.6 252.65" style="fill:#263238"></polygon><rect x="289.22" y="255.67" width="147.56" height="106.57" style="fill:#fff"></rect><g style="clip-path:url(#freepik--clip-path--inject-105)"><rect x="434.07" y="254.76" width="3.43" height="108.29" style="opacity:0.17"></rect><rect x="434.07" y="320.23" width="3.43" height="41.94" style="opacity:0.17"></rect><rect x="288.63" y="254.23" width="148.34" height="5.8" style="fill:#991B1B;stroke:#263238;stroke-miterlimit:10"></rect></g><rect x="289.22" y="255.67" width="147.56" height="106.57" style="fill:none;stroke:#263238;stroke-linecap:round;stroke-linejoin:round"></rect><g style="opacity:0.17"><path d="M366.1,265.61H355.78a.9.9,0,0,1-.91-.91h0a.91.91,0,0,1,.91-.91H366.1a.91.91,0,0,1,.91.91h0A.91.91,0,0,1,366.1,265.61Z"></path><path d="M386.75,265.61H376.42a.91.91,0,0,1-.91-.91h0a.91.91,0,0,1,.91-.91h10.33a.91.91,0,0,1,.91.91h0A.91.91,0,0,1,386.75,265.61Z"></path><path d="M407.39,265.61H397.07a.91.91,0,0,1-.91-.91h0a.91.91,0,0,1,.91-.91h10.32a.91.91,0,0,1,.91.91h0A.9.9,0,0,1,407.39,265.61Z"></path><path d="M428,265.61H417.72a.91.91,0,0,1-.92-.91h0a.92.92,0,0,1,.92-.91H428a.91.91,0,0,1,.91.91h0A.91.91,0,0,1,428,265.61Z"></path></g><rect x="404.97" y="319.95" width="9.71" height="30.63" style="fill:#991B1B;stroke:#263238;stroke-miterlimit:10"></rect><rect x="394.18" y="339.77" width="9.71" height="10.81" style="fill:#263238;stroke:#263238;stroke-linecap:round;stroke-linejoin:round"></rect><rect x="383.39" y="279.4" width="9.71" height="71.17" style="fill:#991B1B;stroke:#263238;stroke-miterlimit:10"></rect><rect x="372.61" y="283.01" width="9.71" height="67.57" style="fill:#fff;stroke:#263238;stroke-linecap:round;stroke-linejoin:round"></rect><rect x="361.82" y="319.95" width="9.71" height="30.63" style="fill:#991B1B;stroke:#263238;stroke-miterlimit:10"></rect><rect x="351.03" y="310.04" width="9.71" height="40.54" style="fill:#263238;stroke:#263238;stroke-linecap:round;stroke-linejoin:round"></rect><rect x="340.25" y="345.17" width="9.71" height="5.41" style="fill:#991B1B;stroke:#263238;stroke-miterlimit:10"></rect><rect x="329.46" y="339.77" width="9.71" height="10.81" style="fill:#fff;stroke:#263238;stroke-linecap:round;stroke-linejoin:round"></rect><rect x="318.67" y="319.95" width="9.71" height="30.63" style="fill:#991B1B;stroke:#263238;stroke-miterlimit:10"></rect><path d="M330.94,292.45l3.47,19.71a20,20,0,0,1-23.49-19.71Z" style="fill:none;stroke:#263238;stroke-linecap:round;stroke-linejoin:round;stroke-width:0.75px"></path><path d="M330.94,292.45l15.77,12.32a19.09,19.09,0,0,1-12.3,7.39Z" style="fill:none;stroke:#263238;stroke-miterlimit:10;stroke-width:0.75px"></path><path d="M330.94,292.45l-10-17.33a20,20,0,0,1,27.34,7.32,19.7,19.7,0,0,1-1.56,22.33Z" style="fill:none;stroke:#263238;stroke-linecap:round;stroke-linejoin:round;stroke-width:0.75px"></path><circle cx="330.94" cy="292.45" r="9.76" transform="translate(-109.86 319.66) rotate(-45)" style="fill:#fff;stroke:#263238;stroke-linecap:round;stroke-linejoin:round;stroke-width:0.75px"></circle><line x1="359.28" y1="371.42" x2="383.07" y2="371.42" style="fill:none;stroke:#263238;stroke-miterlimit:10"></line><line x1="359.28" y1="375.47" x2="383.07" y2="375.47" style="fill:none;stroke:#263238;stroke-miterlimit:10"></line><line x1="359.28" y1="379.52" x2="383.07" y2="379.52" style="fill:none;stroke:#263238;stroke-miterlimit:10"></line><line x1="359.28" y1="383.56" x2="383.07" y2="383.56" style="fill:none;stroke:#263238;stroke-miterlimit:10"></line><polyline points="410.31 346.81 410.31 379.63 387.06 379.63" style="fill:none;stroke:#263238;stroke-miterlimit:10"></polyline><polygon points="139.16 82.52 133.31 73.19 81.8 73.19 81.8 82.52 81.8 85.88 81.8 241.17 293.83 241.17 293.83 82.52 139.16 82.52" style="fill:#263238"></polygon><rect x="83.37" y="86.8" width="209.06" height="150.99" style="fill:#fff"></rect><g style="clip-path:url(#freepik--clip-path-2--inject-105)"><rect x="288.61" y="85.5" width="4.85" height="153.43" style="opacity:0.17"></rect><rect x="288.61" y="178.27" width="4.85" height="59.42" style="opacity:0.17"></rect><rect x="82.54" y="84.76" width="210.17" height="8.21" style="fill:#991B1B;stroke:#263238;stroke-miterlimit:10"></rect></g><rect x="83.37" y="86.8" width="209.06" height="150.99" style="fill:none;stroke:#263238;stroke-linecap:round;stroke-linejoin:round"></rect><g style="opacity:0.17"><path d="M192.3,100.89H177.67a1.29,1.29,0,0,1-1.29-1.29h0a1.29,1.29,0,0,1,1.29-1.29H192.3a1.29,1.29,0,0,1,1.29,1.29h0A1.29,1.29,0,0,1,192.3,100.89Z"></path><path d="M221.55,100.89H206.93a1.29,1.29,0,0,1-1.29-1.29h0a1.29,1.29,0,0,1,1.29-1.29h14.62a1.29,1.29,0,0,1,1.29,1.29h0A1.29,1.29,0,0,1,221.55,100.89Z"></path><path d="M250.8,100.89H236.18a1.29,1.29,0,0,1-1.29-1.29h0a1.29,1.29,0,0,1,1.29-1.29H250.8a1.29,1.29,0,0,1,1.29,1.29h0A1.29,1.29,0,0,1,250.8,100.89Z"></path><path d="M280.06,100.89H265.43a1.29,1.29,0,0,1-1.29-1.29h0a1.29,1.29,0,0,1,1.29-1.29h14.63a1.29,1.29,0,0,1,1.29,1.29h0A1.29,1.29,0,0,1,280.06,100.89Z"></path></g><line x1="94.78" y1="173.57" x2="283.1" y2="173.57" style="fill:none;stroke:#263238;stroke-miterlimit:10;stroke-width:0.5px"></line><line x1="94.78" y1="173.57" x2="94.78" y2="172.11" style="fill:none;stroke:#263238;stroke-miterlimit:10;stroke-width:0.5px"></line><line x1="118.32" y1="173.57" x2="118.32" y2="172.11" style="fill:none;stroke:#263238;stroke-miterlimit:10;stroke-width:0.5px"></line><line x1="141.86" y1="173.57" x2="141.86" y2="172.11" style="fill:none;stroke:#263238;stroke-miterlimit:10;stroke-width:0.5px"></line><line x1="165.4" y1="173.57" x2="165.4" y2="172.11" style="fill:none;stroke:#263238;stroke-miterlimit:10;stroke-width:0.5px"></line><line x1="188.94" y1="173.57" x2="188.94" y2="172.11" style="fill:none;stroke:#263238;stroke-miterlimit:10;stroke-width:0.5px"></line><line x1="212.48" y1="173.57" x2="212.48" y2="172.11" style="fill:none;stroke:#263238;stroke-miterlimit:10;stroke-width:0.5px"></line><line x1="236.02" y1="173.57" x2="236.02" y2="172.11" style="fill:none;stroke:#263238;stroke-miterlimit:10;stroke-width:0.5px"></line><line x1="259.56" y1="173.57" x2="259.56" y2="172.11" style="fill:none;stroke:#263238;stroke-miterlimit:10;stroke-width:0.5px"></line><line x1="283.1" y1="173.57" x2="283.1" y2="172.11" style="fill:none;stroke:#263238;stroke-miterlimit:10;stroke-width:0.5px"></line><line x1="130.09" y1="158.39" x2="106.55" y2="165.67" style="fill:none;stroke:#263238;stroke-linecap:round;stroke-miterlimit:10;stroke-width:2px"></line><line x1="153.63" y1="142.38" x2="130.09" y2="158.39" style="fill:none;stroke:#263238;stroke-linecap:round;stroke-miterlimit:10;stroke-width:2px"></line><line x1="177.17" y1="120.54" x2="153.63" y2="142.38" style="fill:none;stroke:#263238;stroke-linecap:round;stroke-miterlimit:10;stroke-width:2px"></line><line x1="200.71" y1="118.36" x2="177.17" y2="120.54" style="fill:none;stroke:#263238;stroke-linecap:round;stroke-miterlimit:10;stroke-width:2px"></line><line x1="224.25" y1="134.37" x2="200.71" y2="118.36" style="fill:none;stroke:#263238;stroke-linecap:round;stroke-miterlimit:10;stroke-width:2px"></line><line x1="247.79" y1="149.66" x2="224.25" y2="134.37" style="fill:none;stroke:#263238;stroke-linecap:round;stroke-miterlimit:10;stroke-width:2px"></line><line x1="271.33" y1="117.63" x2="247.79" y2="149.66" style="fill:none;stroke:#263238;stroke-linecap:round;stroke-miterlimit:10;stroke-width:2px"></line><path d="M106.55,162.67h0a3,3,0,0,1,3,3h0a3,3,0,0,1-3,3h0a3,3,0,0,1-3-3h0A3,3,0,0,1,106.55,162.67Z" style="fill:#991B1B;stroke:#263238;stroke-miterlimit:10"></path><path d="M130.09,155.39h0a3,3,0,0,1,3,3h0a3,3,0,0,1-3,3h0a3,3,0,0,1-3-3h0A3,3,0,0,1,130.09,155.39Z" style="fill:#991B1B;stroke:#263238;stroke-miterlimit:10"></path><path d="M153.63,139.38h0a3,3,0,0,1,3,3h0a3,3,0,0,1-3,3h0a3,3,0,0,1-3-3h0A3,3,0,0,1,153.63,139.38Z" style="fill:#991B1B;stroke:#263238;stroke-miterlimit:10"></path><path d="M177.17,117.54h0a3,3,0,0,1,3,3h0a3,3,0,0,1-3,3h0a3,3,0,0,1-3-3h0A3,3,0,0,1,177.17,117.54Z" style="fill:#991B1B;stroke:#263238;stroke-miterlimit:10"></path><path d="M200.71,115.36h0a3,3,0,0,1,3,3h0a3,3,0,0,1-3,3h0a3,3,0,0,1-3-3h0A3,3,0,0,1,200.71,115.36Z" style="fill:#991B1B;stroke:#263238;stroke-miterlimit:10"></path><path d="M224.25,131.37h0a3,3,0,0,1,3,3h0a3,3,0,0,1-3,3h0a3,3,0,0,1-3-3h0A3,3,0,0,1,224.25,131.37Z" style="fill:#991B1B;stroke:#263238;stroke-miterlimit:10"></path><rect x="244.79" y="146.66" width="6" height="6" rx="3" style="fill:#991B1B;stroke:#263238;stroke-miterlimit:10"></rect><path d="M271.33,114.63h0a3,3,0,0,1,3,3h0a3,3,0,0,1-3,3h0a3,3,0,0,1-3-3h0A3,3,0,0,1,271.33,114.63Z" style="fill:#991B1B;stroke:#263238;stroke-miterlimit:10"></path><path d="M182.12,211.34,161,215.07a21.49,21.49,0,0,1,17.43-24.89,22.28,22.28,0,0,1,3.73-.32Z" style="fill:#263238;stroke:#263238;stroke-linecap:round;stroke-linejoin:round"></path><path d="M182.12,211.34,168.9,228.27a20.43,20.43,0,0,1-7.94-13.2Z" style="fill:#991B1B;stroke:#263238;stroke-miterlimit:10"></path><path d="M182.12,211.34l18.61-10.74A21.49,21.49,0,0,1,192.87,230a21.11,21.11,0,0,1-24-1.68Z" style="fill:#fff;stroke:#263238;stroke-linecap:round;stroke-linejoin:round"></path><path d="M182.12,211.34V189.86a20.88,20.88,0,0,1,18.61,10.74Z" style="fill:#991B1B;stroke:#263238;stroke-miterlimit:10"></path><circle cx="182.12" cy="211.34" r="10.48" transform="translate(-96.1 190.68) rotate(-45)" style="fill:#fff;stroke:#263238;stroke-linecap:round;stroke-linejoin:round"></circle><path d="M118.57,211.38l3.73,21.16a21.48,21.48,0,0,1-24.89-17.43,22.2,22.2,0,0,1-.33-3.73Z" style="fill:#263238;stroke:#263238;stroke-linecap:round;stroke-linejoin:round"></path><path d="M118.57,211.38l16.93,13.23a20.46,20.46,0,0,1-13.2,7.93Z" style="fill:#991B1B;stroke:#263238;stroke-miterlimit:10"></path><path d="M118.57,211.38l-10.75-18.61a21.5,21.5,0,0,1,29.36,7.87,21.15,21.15,0,0,1-1.68,24Z" style="fill:#fff;stroke:#263238;stroke-linecap:round;stroke-linejoin:round"></path><path d="M118.57,211.38H97.08a20.88,20.88,0,0,1,10.74-18.61Z" style="fill:#991B1B;stroke:#263238;stroke-miterlimit:10"></path><circle cx="118.57" cy="211.38" r="10.48" style="fill:#fff;stroke:#263238;stroke-linecap:round;stroke-linejoin:round"></circle><path d="M245.61,211.38l3.73,21.16a21.48,21.48,0,0,1-24.89-17.43,22.2,22.2,0,0,1-.33-3.73Z" style="fill:#263238;stroke:#263238;stroke-linecap:round;stroke-linejoin:round"></path><path d="M245.61,211.38l16.93,13.23a20.46,20.46,0,0,1-13.2,7.93Z" style="fill:#991B1B;stroke:#263238;stroke-miterlimit:10"></path><path d="M245.61,211.38l-10.75-18.61a21.5,21.5,0,0,1,29.36,7.87,21.15,21.15,0,0,1-1.68,24Z" style="fill:#fff;stroke:#263238;stroke-linecap:round;stroke-linejoin:round"></path><path d="M245.61,211.38H224.12a20.88,20.88,0,0,1,10.74-18.61Z" style="fill:#991B1B;stroke:#263238;stroke-miterlimit:10"></path><circle cx="245.61" cy="211.38" r="10.48" style="fill:#fff;stroke:#263238;stroke-linecap:round;stroke-linejoin:round"></circle><line x1="95.3" y1="109.86" x2="119.09" y2="109.86" style="fill:none;stroke:#263238;stroke-miterlimit:10"></line><line x1="95.3" y1="113.9" x2="119.09" y2="113.9" style="fill:none;stroke:#263238;stroke-miterlimit:10"></line><line x1="95.3" y1="117.95" x2="119.09" y2="117.95" style="fill:none;stroke:#263238;stroke-miterlimit:10"></line><line x1="95.3" y1="122" x2="119.09" y2="122" style="fill:none;stroke:#263238;stroke-miterlimit:10"></line><polyline points="280.38 119.1 303.63 119.1 330.99 143.03" style="fill:none;stroke:#263238;stroke-linecap:round;stroke-linejoin:round"></polyline><line x1="335.35" y1="136.19" x2="359.14" y2="136.19" style="fill:none;stroke:#263238;stroke-miterlimit:10"></line><line x1="335.35" y1="140.24" x2="359.14" y2="140.24" style="fill:none;stroke:#263238;stroke-miterlimit:10"></line><line x1="335.35" y1="144.29" x2="359.14" y2="144.29" style="fill:none;stroke:#263238;stroke-miterlimit:10"></line><line x1="335.35" y1="148.33" x2="359.14" y2="148.33" style="fill:none;stroke:#263238;stroke-miterlimit:10"></line><line x1="335.35" y1="205.25" x2="359.14" y2="205.25" style="fill:none;stroke:#263238;stroke-miterlimit:10"></line><line x1="335.35" y1="209.3" x2="359.14" y2="209.3" style="fill:none;stroke:#263238;stroke-miterlimit:10"></line><line x1="335.35" y1="213.35" x2="359.14" y2="213.35" style="fill:none;stroke:#263238;stroke-miterlimit:10"></line><line x1="335.35" y1="217.4" x2="359.14" y2="217.4" style="fill:none;stroke:#263238;stroke-miterlimit:10"></line><line x1="106.96" y1="285.26" x2="130.75" y2="285.26" style="fill:none;stroke:#263238;stroke-miterlimit:10"></line><line x1="106.96" y1="289.31" x2="130.75" y2="289.31" style="fill:none;stroke:#263238;stroke-miterlimit:10"></line><line x1="106.96" y1="293.36" x2="130.75" y2="293.36" style="fill:none;stroke:#263238;stroke-miterlimit:10"></line><line x1="106.96" y1="297.4" x2="130.75" y2="297.4" style="fill:none;stroke:#263238;stroke-miterlimit:10"></line><polyline points="256.45 199.1 266.02 188.16 304.32 188.16 331.67 210.73" style="fill:none;stroke:#263238;stroke-miterlimit:10"></polyline><line x1="118.32" y1="231.93" x2="118.32" y2="283.21" style="fill:none;stroke:#263238;stroke-miterlimit:10"></line></g><g id="freepik--character-2--inject-105"><ellipse cx="291.83" cy="453.16" rx="50.42" ry="14.81" style="fill:#991B1B"></ellipse><ellipse cx="291.83" cy="453.16" rx="50.42" ry="14.81" style="fill:#fff;opacity:0.5"></ellipse><path d="M288.13,217.12a14.48,14.48,0,0,0-9.55-5.6c-6.14-.68-11.32,3.55-13.78,6.28s-.82,8-1.09,9.14-3.55,4.63-3.41,5.73,1.77,1.22,1.77,1.22,1.37,6.42,2.19,7.92,3,1.77,3.82,1.77a3,3,0,0,1,1.62.65l1.27,4.43,18.66-4.26-.55-6.14s4.64-6.14,4.23-12.14A12.21,12.21,0,0,0,288.13,217.12Z" style="fill:#fff;stroke:#263238;stroke-linecap:round;stroke-linejoin:round"></path><path d="M284.31,219.71c-4,.68-9.55-5.05-13-2.59,0,0-4.64,3.82-4.36,5.59s2.45,3.14,2.31,4.77.55,5.05,1.37,3.55.41-3.14,1.64-3.55,3,1.78,3.27,3.82-.14,3,.95,4.5a8.33,8.33,0,0,0,6.55,3.28,42.83,42.83,0,0,0,6-.82s4.64-6.14,4.23-12.14a12.21,12.21,0,0,0-5.18-9S288.27,219,284.31,219.71Z" style="fill:#fff;stroke:#263238;stroke-linecap:round;stroke-linejoin:round"></path><path d="M271.21,234.71s.41,3.14,2.32,2.59,2.32-3.27,2.32-3.27" style="fill:none;stroke:#263238;stroke-linecap:round;stroke-linejoin:round"></path><path d="M265.35,252.86a21.39,21.39,0,0,1,2.71-3.57c1.77-1.91,11.81-5.67,16.45-5.95s8.45,3.54,10.63,5.32a3.5,3.5,0,0,1,1.45,3.79,38.56,38.56,0,0,0-16.51-1.37A141.17,141.17,0,0,0,264.53,254Z" style="fill:#991B1B;stroke:#263238;stroke-linecap:round;stroke-linejoin:round"></path><path d="M240.68,333.09s1.23,8.42,1.64,10.47,3.33,8.68,5,7.11,2.23-6.9,1.41-9.57-2.05-7.59-2.25-8.21S240.68,333.09,240.68,333.09Z" style="fill:#fff;stroke:#263238;stroke-linecap:round;stroke-linejoin:round"></path><path d="M238.34,303.19a43.7,43.7,0,0,0-1.77,10.09,107.06,107.06,0,0,0,1.63,15.28c.56,3.64,3,7.32,4.91,7.23,5.87-.27,3.69-11.18,4.78-17.46s2-6.68,2.59-13.64" style="fill:#991B1B;stroke:#263238;stroke-linecap:round;stroke-linejoin:round"></path><path d="M266.59,444.64a8.32,8.32,0,0,0-3.43.72c-1.72.79-2.15,1.86-1.57,2.93s1.85,3.65,3.93,4.93,4.93,1.93,6.57,3,4.72.71,5.8-1.22-.22-6.22-.22-6.22a53.05,53.05,0,0,1-7.08-2.29C268.09,445.36,266.59,444.64,266.59,444.64Z" style="fill:#fff;stroke:#263238;stroke-linecap:round;stroke-linejoin:round"></path><path d="M277.89,455a3.66,3.66,0,0,0,.21-.53,6,6,0,0,1-5,1.46c-1.43-.29-4-2.07-5.65-2.72a10.61,10.61,0,0,1-4.51-4.21,7.17,7.17,0,0,1-.85-3,1.71,1.71,0,0,0-.5,2.28c.57,1.07,1.85,3.65,3.93,4.93s4.93,1.93,6.57,3S276.81,456.94,277.89,455Z" style="fill:#fff;stroke:#263238;stroke-linecap:round;stroke-linejoin:round"></path><path d="M294.06,446.47s.5,3.36.5,4.72,2.29,3.79,4.65,3.79,4.71-.93,5.71-2.14.65-5.44.65-5.44S296.27,448.83,294.06,446.47Z" style="fill:#fff;stroke:#263238;stroke-linecap:round;stroke-linejoin:round"></path><path d="M304.92,452.84a3.11,3.11,0,0,0,.53-1.41c-1.14,1.27-3.43,3.12-6,2.62a8.52,8.52,0,0,1-4.88-3.37c0,.19,0,.36,0,.51,0,1.36,2.29,3.79,4.65,3.79S303.92,454.05,304.92,452.84Z" style="fill:#fff;stroke:#263238;stroke-linecap:round;stroke-linejoin:round"></path><path d="M254.71,320.11s.54,11.18.27,16,.41,29.19,1,37.24,2.32,26.19,3.54,33.55,7.68,36.29,7.68,36.29-1.31,2.62-1,3.71,2.94,3.93,6.87,4.37,4.69-.44,5.46-2.19,1.09-6.33,1.31-9.16,2.58-8.6,1.76-16.24.68-34.24.68-34.24l1.23-18.28s.82,22.37,1.64,25.78,7,40.23,7.7,42.3.11,5.78.54,6.66.77,2.83,1.86,3.71,5.78,1.31,7.53.54,3.16-1.74,3.16-2.51.66-4.36.44-6.33-.76-3.6-.76-4.14,1.63-29.59,1.63-37.63-1-17.06-1-17.06,3.14-23.73,3.68-33.28a96.76,96.76,0,0,0-.68-20.19c-.54-2.86-1.5-9-1.5-9s-11.46,3.55-20.46,3.82-12.14.95-17.19-.27-11.73-3-12.27-3.41S254.16,318.2,254.71,320.11Z" style="fill:#263238;stroke:#263238;stroke-linecap:round;stroke-linejoin:round"></path><line x1="283.49" y1="371.12" x2="285.81" y2="351.07" style="fill:none;stroke:#fff;stroke-linecap:round;stroke-linejoin:round"></line><line x1="285.26" y1="355.71" x2="292.81" y2="352.59" style="fill:none;stroke:#fff;stroke-linecap:round;stroke-linejoin:round"></line><line x1="306.27" y1="382.44" x2="300.6" y2="407.59" style="fill:none;stroke:#fff;stroke-linecap:round;stroke-linejoin:round"></line><path d="M324.62,251.06s1.77-5.3,2.41-6.91,2.09-3.37,2.09-5.45-.81-6.75-1.29-5.46a13.86,13.86,0,0,0-.64,4.49,3.79,3.79,0,0,1-.64,2.25s-1.93-4.17-3.53-4.33-1.61.32-1,1A8,8,0,0,1,324,239a5.16,5.16,0,0,1,.8,1.92s-2.73-3.05-4-3.05-2.41.64-1.61,1.13a10,10,0,0,0,2.41.8l1.13,2.25s-2.73-1-3.54-.16S320,243,320,243l1.12.16a10.56,10.56,0,0,0-1.44,4.33,37.32,37.32,0,0,0,.48,4.82Z" style="fill:#fff;stroke:#263238;stroke-linecap:round;stroke-linejoin:round"></path><path d="M321.89,248.33a18.85,18.85,0,0,1,1.45-4.34c.8-1.28,2.73-2.08,3.85-3.37s1.77-3.21,2.57-2.41.16,2.25-.64,3.38-3.53,4-3.7,6.58" style="fill:#fff;stroke:#263238;stroke-linecap:round;stroke-linejoin:round"></path><path d="M318.84,255.71l.32-4.81a5.92,5.92,0,0,1,3.38-.65c2.08.16,2.72,1,2.72,1l.16,5.3Z" style="fill:#991B1B;stroke:#263238;stroke-linecap:round;stroke-linejoin:round"></path><path d="M248.93,307.5a4.86,4.86,0,0,0,.73-.9s0,.1.06.25c1-3,2.81-7.34,2.81-7.34s.54,20.46,2.32,22.64c1.37,1.7,4,2.18,6,2.61,2.68.57,5.37,1.13,8.08,1.52,9.41,1.36,18.84.81,28.23-.4,2.74-.35,7.26-.17,9.24-2.5a7,7,0,0,0,1.5-4.5c0-.55,1.09-23.33,1.09-23.33s11.73,8.73,14.19,8.46,4.09-2.46,3.82-9-1-38.61-1.78-40.11-5.18-1.77-6.82.14S316,272.8,316,272.8s-5.22-11.35-7.4-14.9-15.41-7.77-15.41-7.77-8.32-2.73-16.37-1A55.65,55.65,0,0,0,260,255.45c-4.09,2.32-12.14,4.5-13.51,7.36s-6.27,33.15-7.36,37.11c-.32,1.13-.68,2.38-1,3.72a10.14,10.14,0,0,0,.66,2.18" style="fill:#991B1B;stroke:#263238;stroke-linecap:round;stroke-linejoin:round"></path><line x1="298.44" y1="294.58" x2="302.55" y2="291.21" style="fill:none;stroke:#263238;stroke-miterlimit:10"></line><line x1="270.89" y1="317.2" x2="295.12" y2="297.31" style="fill:none;stroke:#263238;stroke-miterlimit:10"></line><line x1="267.58" y1="312.47" x2="277.98" y2="303.97" style="fill:none;stroke:#263238;stroke-miterlimit:10"></line><path d="M249.72,318.53l-6,11.14a4.52,4.52,0,0,0-.48,2.91l3.12,18a.49.49,0,0,0,1,.09l5.56-14.95a4.38,4.38,0,0,0,.24-2l-1.82-14.87A.81.81,0,0,0,249.72,318.53Z" style="fill:#263238;stroke:#263238;stroke-linecap:round;stroke-linejoin:round"></path><line x1="315.99" y1="272.8" x2="322.03" y2="286.79" style="fill:#fff;stroke:#263238;stroke-linecap:round;stroke-linejoin:round"></line><path d="M250.74,345.2a19.28,19.28,0,0,0,1.76-5.73c.21-2.58-.51-2.38-1.13-.93S250.74,345.2,250.74,345.2Z" style="fill:#fff;stroke:#263238;stroke-linecap:round;stroke-linejoin:round"></path><path d="M247.86,349.92s2.47-2.87,2.88-4.72,1.43-5.54.41-5.13-1.44,2.46-1.44,2.46a1.19,1.19,0,0,0-1.85.83C247.45,345,247.86,349.92,247.86,349.92Z" style="fill:#fff;stroke:#263238;stroke-linecap:round;stroke-linejoin:round"></path><path d="M249.71,342.53s.71,3.12-.2,5.19" style="fill:none;stroke:#263238;stroke-linecap:round;stroke-linejoin:round"></path><line x1="309" y1="295.55" x2="309.55" y2="277.41" style="fill:none;stroke:#263238;stroke-linecap:round;stroke-linejoin:round"></line><line x1="309.27" y1="289.82" x2="311.46" y2="279.59" style="fill:none;stroke:#263238;stroke-linecap:round;stroke-linejoin:round"></line><line x1="252.53" y1="299.51" x2="251.98" y2="278.91" style="fill:none;stroke:#263238;stroke-linecap:round;stroke-linejoin:round"></line></g><g id="freepik--character-1--inject-105"><ellipse cx="182.99" cy="453.16" rx="50.42" ry="14.81" style="fill:#991B1B"></ellipse><ellipse cx="182.99" cy="453.16" rx="50.42" ry="14.81" style="fill:#fff;opacity:0.5"></ellipse><path d="M203.64,247.52a22.57,22.57,0,0,0-.32-5.16c-.49-1.77-1.62-2.9-1.46-3.55s2.1-.16,2.59,1.13,1.29,3.55,1.29,3.55v-5c0-.81-1.94-1-2.58-1.77s-.17-1.13.32-1.13,2.42-.17,3.55.8a4,4,0,0,1,1.13,3.23,6.64,6.64,0,0,1-.16,1.45s2.58.32,3.38,2.1a9.24,9.24,0,0,1,.33,5.48c-.33,1.46.8,4.36.8,4.36l-3.39,2.58s-2.74-2.9-4.19-4.52A5.13,5.13,0,0,1,203.64,247.52Z" style="fill:#fff;stroke:#263238;stroke-linecap:round;stroke-linejoin:round"></path><path d="M212.51,253l-3.39,2.58s18.65,38,20.42,39.31,4,1.62,6.62-1.93,2.26-5.81.48-9.84S212.51,253,212.51,253Z" style="fill:#991B1B;stroke:#263238;stroke-linecap:round;stroke-linejoin:round"></path><path d="M198.06,215.32s2.41,5.77,2.41,7.22a7.2,7.2,0,0,0,1.08,3.85c.72,1.2,1.57,1.56,1.08,2.52a5.49,5.49,0,0,1-.84,1.32s-.36,5.18-.36,6.86-.84,1.8-2.4,1.92a20.15,20.15,0,0,1-4.09-.36l-.24,4.57s-5.78-.72-8.06-.72h-4.45l.24-7.09a56.29,56.29,0,0,1-3.37-8.18,8.66,8.66,0,0,1,6.5-11.55A40.09,40.09,0,0,1,198.06,215.32Z" style="fill:#fff;stroke:#263238;stroke-linecap:round;stroke-linejoin:round"></path><path d="M194,229.15s2.53-.72,2.05-2.89-1.32-3.12-1.2-3.48,2-1.09,2-2.65-2-2.4-2-2.4,8.9-2.77,9.5-5.3-.6-5.05-3-5.05a19.48,19.48,0,0,0-3.61.36c-.48,0-3.61-3.49-6.37-2.16s-3,3-3,3-10.1.49-13.95,4.57-.6,13.6,2,17.08,4.69,7.22,7.1,7.7,6.86-.24,8.54-2.52.84-5.78.84-5.78Z" style="fill:#263238;stroke:#263238;stroke-linecap:round;stroke-linejoin:round"></path><path d="M195.3,230s-2.53-5.05-4.33-4-.48,5.18.72,6.5a2.27,2.27,0,0,0,3.25.48" style="fill:#fff;stroke:#263238;stroke-linecap:round;stroke-linejoin:round"></path><path d="M175.93,247.19a14.2,14.2,0,0,1,3-4.69c1.8-1.56,6.25-2.64,10-1.92s6.74,1.8,7.46,3.49a30.93,30.93,0,0,1,1.32,4.45s-3.48-1.69-10.34-1.69a36.31,36.31,0,0,0-11.67,1.81Z" style="fill:#991B1B;stroke:#263238;stroke-linecap:round;stroke-linejoin:round"></path><path d="M160.36,445s-4.57-.36-6.49.12-2.41,2.16-1.56,3.36a26.13,26.13,0,0,0,3.84,4.33c1.2,1,5,1.44,6.73,2.28s3.73,1.57,6,0,1-7.45,1-7.45S164.21,448.6,160.36,445Z" style="fill:#fff;stroke:#263238;stroke-linecap:round;stroke-linejoin:round"></path><path d="M167.33,454.73c-2.16.36-6.13-.72-9.62-2.52-2.45-1.27-4.55-4.21-5.57-5.84a2,2,0,0,0,.17,2.11,26.13,26.13,0,0,0,3.84,4.33c1.2,1,5,1.44,6.73,2.28s3.73,1.57,6,0a2.48,2.48,0,0,0,.82-1A15.53,15.53,0,0,1,167.33,454.73Z" style="fill:#fff;stroke:#263238;stroke-linecap:round;stroke-linejoin:round"></path><path d="M206.38,445s4.57-.36,6.49.12,2.41,2.16,1.57,3.36a26.66,26.66,0,0,1-3.85,4.33c-1.2,1-5.05,1.44-6.73,2.28s-3.73,1.57-6,0-1-7.45-1-7.45S202.53,448.6,206.38,445Z" style="fill:#fff;stroke:#263238;stroke-linecap:round;stroke-linejoin:round"></path><path d="M199.41,454.73c2.16.36,6.13-.72,9.62-2.52,2.45-1.27,4.55-4.21,5.57-5.84a2,2,0,0,1-.16,2.11,26.66,26.66,0,0,1-3.85,4.33c-1.2,1-5.05,1.44-6.73,2.28s-3.73,1.57-6,0a2.48,2.48,0,0,1-.82-1A15.85,15.85,0,0,0,199.41,454.73Z" style="fill:#fff;stroke:#263238;stroke-linecap:round;stroke-linejoin:round"></path><path d="M167.39,312.14s-1,11.19-1.08,16.24a62.84,62.84,0,0,0,.6,9.74l-2.4,46.19s-3.61,29.71-3.61,35.6.48,21.29.48,21.29a30.18,30.18,0,0,0-1.44,3.25,37.9,37.9,0,0,0,.24,4.2,16.24,16.24,0,0,0,6.13,2.17,4.08,4.08,0,0,0,4.21-2.29,58.21,58.21,0,0,0,.84-7,32,32,0,0,0-.12-4.21s5.29-25.86,7.82-34.64,7.1-32.6,7.34-35.72,3-17.68,3-17.68,2.41,26.1,3,31-.87,18.62-.87,26S196,442.27,196,442.27a36.57,36.57,0,0,0,.23,4.51c.24,1,1.67,4.28,1.67,4.28s3.56.71,5.23-.24,4.27-2.61,4.51-5.46-.85-8.62-1.08-10.28,4-33.75,4-45.15,1.9-36.13,1.9-41.35-1.19-22.82-1.19-22.82l-2.14-16.87S189.35,316.34,167.39,312.14Z" style="fill:#263238;stroke:#263238;stroke-linecap:round;stroke-linejoin:round"></path><polyline points="189.4 349.31 187.74 338.36 183.7 338.36" style="fill:none;stroke:#fff;stroke-linecap:round;stroke-linejoin:round"></polyline><path d="M159.58,254.29s-27.21,40.82-26.73,42.48,26.61,15.45,26.61,15.45l-.24-5.23-10-13.31,14-14.73Z" style="fill:#991B1B;stroke:#263238;stroke-linecap:round;stroke-linejoin:round"></path><path d="M159.22,307l3.76-1.55,4,3.55s1.39,2.91.37,3.15l-1,.24s1.13,2.74-.64,3.55-4.36-.16-5.49-1.13a12.89,12.89,0,0,1-2.26-3.39Z" style="fill:#fff;stroke:#263238;stroke-linecap:round;stroke-linejoin:round"></path><path d="M164.11,306.73s1.46,1.62,1.29,2.42-.8,3.55-1.45,3.71-1.29-1.13-1.13-1.61a13.94,13.94,0,0,0,.33-1.45s-1.46,1.13-2.26.48" style="fill:#fff;stroke:#263238;stroke-linecap:round;stroke-linejoin:round"></path><path d="M194.82,246a44.05,44.05,0,0,0-12.27-.24,51.48,51.48,0,0,0-15,4.45c-3,1.44-7.93,3.61-7.93,4.09s7,45.1,7,45.1,0,11.55.72,13.23,2.89,1.93,8.18,2.53a130.12,130.12,0,0,0,23.82-.72c4.69-.85,8.78-1.57,9.5-3.73s-.24-7.94-.24-7.94L211.05,256a24,24,0,0,0-7.57-6A80.51,80.51,0,0,0,194.82,246Z" style="fill:#991B1B;stroke:#263238;stroke-linecap:round;stroke-linejoin:round"></path><path d="M234.22,282.16,211.05,256l-1.62,25.8s17.94,15.28,22,14.8,4.76-3.6,4.76-3.6" style="fill:#991B1B;stroke:#263238;stroke-linecap:round;stroke-linejoin:round"></path></g></svg>