<svg class="animated" id="freepik_stories-data-analysis" xmlns="http://www.w3.org/2000/svg" viewBox="0 0 750 500" version="1.1" xmlns:xlink="http://www.w3.org/1999/xlink" xmlns:svgjs="http://svgjs.com/svgjs"><style>svg#freepik_stories-data-analysis:not(.animated) .animable {opacity: 0;}svg#freepik_stories-data-analysis.animated #freepik--magnifying-glass--inject-4 {animation: 1s 1 forwards cubic-bezier(.36,-0.01,.5,1.38) slideDown,1.5s Infinite  linear floating;animation-delay: 0s,1s;}svg#freepik_stories-data-analysis.animated #freepik--chart-6--inject-4 {animation: 6s Infinite  linear spin;animation-delay: 0.5s;}svg#freepik_stories-data-analysis.animated #freepik--char-5--inject-4 {animation: 2.0s 1 forwards cubic-bezier(.36,-0.01,.5,1.38) fadeIn,1.5s Infinite  linear floating;animation-delay: 0s,2s;}svg#freepik_stories-data-analysis.animated #freepik--chart-4--inject-4 {animation: 1s 1 forwards cubic-bezier(.36,-0.01,.5,1.38) fadeIn;animation-delay: 0s;}svg#freepik_stories-data-analysis.animated #freepik--chart-1--inject-4 {animation: 1.6s 1 forwards cubic-bezier(.36,-0.01,.5,1.38) fadeIn,1.5s Infinite  linear floating;animation-delay: 0s,1.6s;}svg#freepik_stories-data-analysis.animated #freepik--chart-2--inject-4 {animation: 1s 1 forwards cubic-bezier(.36,-0.01,.5,1.38) fadeIn;animation-delay: 0s;}svg#freepik_stories-data-analysis.animated #freepik--chart-3--inject-4 {animation: 0.5s 1 forwards cubic-bezier(.36,-0.01,.5,1.38) fadeIn;animation-delay: 0s;}svg#freepik_stories-data-analysis.animated #freepik--user-icon--inject-4 {animation: 3.0s 1 forwards cubic-bezier(.36,-0.01,.5,1.38) fadeIn,1.5s Infinite  linear floating;animation-delay: 0s,3s;}svg#freepik_stories-data-analysis.animated #freepik--Character--inject-4 {animation: 1s 1 forwards cubic-bezier(.36,-0.01,.5,1.38) fadeIn;animation-delay: 0s;}            @keyframes slideDown {                0% {                    opacity: 0;                    transform: translateY(-30px);                }                100% {                    opacity: 1;                    transform: translateY(0);                }            }                    @keyframes floating {                0% {                    opacity: 1;                    transform: translateY(0px);                }                50% {                    transform: translateY(-10px);                }                100% {                    opacity: 1;                    transform: translateY(0px);                }            }                 @keyframes spin {             from {                 transform: rotate(0);               }               to {                 transform: rotate(360deg);               }         }                 @keyframes fadeIn {                0% {                    opacity: 0;                }                100% {                    opacity: 1;                }            }        .animator-hidden { display: none; }</style><g id="freepik--background-complete--inject-4" class="animable animator-hidden" style="transform-origin: 387.34px 263.31px;"><path d="M630.4,386.3a31.88,31.88,0,0,0-13.7-4.71c-2.24-.23-4.69-.17-6.48,1.19-.38.29-.76.71-.67,1.18a1.4,1.4,0,0,0,.63.81,19.6,19.6,0,0,0,20.22,1.53" style="fill: rgb(224, 224, 224); transform-origin: 619.968px 384.948px;" id="elto5ar4cvm08" class="animable"></path><path d="M630.05,385.92a67.69,67.69,0,0,1-8.85-7.79,22.44,22.44,0,0,1-5.55-10.26,4.15,4.15,0,0,1,.44-3.44c7.06,5.51,12.6,12.64,14,21.49" style="fill: rgb(224, 224, 224); transform-origin: 622.775px 375.175px;" id="elvd1eajogp3" class="animable"></path><path d="M630.33,386.25a32.17,32.17,0,0,1,.16-11.62,15.73,15.73,0,0,1,6.19-9.59c1.22,2.85.7,6.13-.16,9.11a44.24,44.24,0,0,1-6.14,12.92" style="fill: rgb(224, 224, 224); transform-origin: 633.639px 376.055px;" id="el87sttnp8fq5" class="animable"></path><path d="M637.25,398.64c-4.2.51-7.86,2.73-11,5.56A20.76,20.76,0,0,0,620,415c4.12-.26,7.61-3.16,10.15-6.42s4.29-6.83,7.07-9.87" style="fill: rgb(224, 224, 224); transform-origin: 628.625px 406.82px;" id="el9zzvy0622fu" class="animable"></path><path d="M638.75,400.62A27.08,27.08,0,0,1,641.88,375c2.39,8.5,1.51,18.11-3.13,25.63" style="fill: rgb(224, 224, 224); transform-origin: 640.017px 387.815px;" id="eluqzkui6zt3l" class="animable"></path><path d="M647.89,411.51a19.57,19.57,0,0,0-18.74,10.78c-.24.47-.44,1.06-.13,1.47a1.39,1.39,0,0,0,1.24.37c3.7-.24,7-2.46,9.67-5s5.05-5.46,8-7.64" style="fill: rgb(224, 224, 224); transform-origin: 638.396px 417.814px;" id="el2mvw7j6uevn" class="animable"></path><path d="M647.6,410.91a34.83,34.83,0,0,1-.35-19.49c.68-2.51,1.84-5.16,4.16-6.33A.8.8,0,0,1,652,385a.81.81,0,0,1,.41.46,11.91,11.91,0,0,1,1,5.6,35.06,35.06,0,0,1-.88,5.66c-.73,3.46-1.12,7.18-3,10.16a20.93,20.93,0,0,0-1.2,2.24c-.36.75-.37,1-.69,1.62" style="fill: rgb(224, 224, 224); transform-origin: 649.731px 397.944px;" id="elenldx9yipqq" class="animable"></path><path d="M671.78,414.52c-1.79-6.82.11-15.08,4.41-20.67.32-.41.74-.85,1.25-.81.79.08,1,1.13,1,1.92a37.3,37.3,0,0,1-6.62,19.56" style="fill: rgb(224, 224, 224); transform-origin: 674.775px 403.779px;" id="elmts0saxqep8" class="animable"></path><path d="M674,416a30.08,30.08,0,0,0,24.67-5,20,20,0,0,0-13.36-1.64c-4.46,1-8.54,3-11.31,6.66" style="fill: rgb(224, 224, 224); transform-origin: 686.335px 412.839px;" id="el7k7gw5gxlfu" class="animable"></path><path d="M675.8,411.47c4.64-7.56,13.54-12.5,22.4-13-1,3.61-4,6.41-7.33,8.1a40.55,40.55,0,0,1-10.75,3.14c-1.43.28-3.39.59-4.32,1.71" style="fill: rgb(224, 224, 224); transform-origin: 687px 404.97px;" id="elcyjjx2fjcse" class="animable"></path><path d="M672.25,389.44a65.72,65.72,0,0,0,2.86-13.11,21.85,21.85,0,0,0-2.61-13c-4.34,8.38-4.77,18.18-.38,26.53" style="fill: rgb(224, 224, 224); transform-origin: 672.136px 376.595px;" id="elq8dcz93o97" class="animable"></path><path d="M686.83,382.07c5.07-9.21,15.41-16.56,25.87-17.59-4,10-15,17.81-25.87,17.59" style="fill: rgb(224, 224, 224); transform-origin: 699.765px 373.277px;" id="elsixcq060obf" class="animable"></path><path d="M683.65,383.88c7.55,1.15,14,6,21.05,8.9a9.52,9.52,0,0,0,4.76.91,3.72,3.72,0,0,0,2.34-6.59,10.21,10.21,0,0,0-3.46-2.1c-7.69-3.2-15.94-3.28-24-1.34" style="fill: rgb(224, 224, 224); transform-origin: 698.402px 388.039px;" id="elhh78bvzhr0h" class="animable"></path><path d="M679.27,389.18c1.71.49,2.3,1.37,3.65,2.53a39.51,39.51,0,0,0,16,8.2c.61.15,1.41.21,1.71-.34s-.07-1.07-.41-1.49a22,22,0,0,0-9.64-6.55c-3.69-1.37-6.88-3-11.28-2.67" style="fill: rgb(224, 224, 224); transform-origin: 690.005px 394.415px;" id="elct76c0ipe95" class="animable"></path><path d="M674.34,357.17a30.23,30.23,0,0,0,23.17,7.88,1.61,1.61,0,0,0,1-.38c.58-.64-.12-1.61-.8-2.14-6.81-5.31-15.06-7.52-23.42-5.36" style="fill: rgb(224, 224, 224); transform-origin: 686.508px 360.759px;" id="el5x9ojv3edbr" class="animable"></path><path d="M680.19,355a32.31,32.31,0,0,1,28.91-4.77,22.94,22.94,0,0,1-13.78,6.05A43.42,43.42,0,0,1,680.19,355" style="fill: rgb(224, 224, 224); transform-origin: 694.645px 352.59px;" id="elghzmusgwi2l" class="animable"></path><path d="M677.86,340.31c-.67-6.79-.23-12.16-.7-19,0-.55-.16-1.2-.67-1.4-.71-.27-1.3.6-1.54,1.32a21.81,21.81,0,0,0,2.9,18.92" style="fill: rgb(224, 224, 224); transform-origin: 675.911px 330.085px;" id="elkl6vzayc8g" class="animable"></path><path d="M677.37,341.07a40.1,40.1,0,0,0,11.27-10.95c2.22-3,4.1-6.69,3.59-10.43a10.8,10.8,0,0,0-8.12,4,22.48,22.48,0,0,0-4.14,8.33c-.91,3-1.54,6.07-2.6,9" style="fill: rgb(224, 224, 224); transform-origin: 684.842px 330.38px;" id="elkadj3rdqor" class="animable"></path><path d="M688.44,338a90.71,90.71,0,0,0,27.71-16.34c-3.31-1.33-7.1-.54-10.41.8a32.81,32.81,0,0,0-17.45,15.47" style="fill: rgb(224, 224, 224); transform-origin: 702.22px 329.487px;" id="elqsl9ilz9cf" class="animable"></path><path d="M680.49,344.79c5.11.55,10.31.92,15.38.07s9.71-2.81,14.37-4.77a1.73,1.73,0,0,0,1-.74,1.12,1.12,0,0,0-.35-1.23,2.91,2.91,0,0,0-1.23-.58c-5.07-1.42-10.54-.75-15.52.93a71.45,71.45,0,0,0-13.63,6.32" style="fill: rgb(224, 224, 224); transform-origin: 695.895px 341.065px;" id="el9p7hqam2aau" class="animable"></path><path d="M651.27,357.4c-3.49-7-3.26-15.27-.25-22.53,2.13,3.23,2.38,7.35,2,11.2s-1.56,7.81-1.64,11.68" style="fill: rgb(224, 224, 224); transform-origin: 650.938px 346.31px;" id="el30eog6jhtes" class="animable"></path><path d="M637.33,350.36A31.43,31.43,0,0,0,614,360.31a21.76,21.76,0,0,0,12.78-2.37,65.06,65.06,0,0,0,11-7.33" style="fill: rgb(224, 224, 224); transform-origin: 625.89px 355.412px;" id="elxzc6ihlr9c8" class="animable"></path><path d="M628,347.23c-4.26-.35-8.36-.87-12.46.38a15,15,0,0,0-9.5,8.06,22.47,22.47,0,0,0,11.68-2.21A67.33,67.33,0,0,0,628,347.23" style="fill: rgb(224, 224, 224); transform-origin: 617.02px 351.281px;" id="ellefguu0rml" class="animable"></path><path d="M641.83,347.37c-3.83-2.51-7.77-5.07-12.24-6.11s-9.64-.27-12.75,3.09c3.61,2.13,8,2.38,12.19,2.37s9.33-.05,13.28,1.35" style="fill: rgb(224, 224, 224); transform-origin: 629.575px 344.449px;" id="elx6bpoisdpw" class="animable"></path><path d="M641.86,347.58c-6.56-6.44-9.05-18-6.41-26.81a40.92,40.92,0,0,1,6.41,26.81" style="fill: rgb(224, 224, 224); transform-origin: 638.257px 334.175px;" id="elinicrapzmq7" class="animable"></path><path d="M659.89,329.33c1.23-2.87,2.1-5.89,3.21-8.82a25.43,25.43,0,0,1,4.59-8.13,12.09,12.09,0,0,1,8.12-4.21,32.73,32.73,0,0,1-15.76,21.21" style="fill: rgb(224, 224, 224); transform-origin: 667.85px 318.775px;" id="elxi8p3jith8" class="animable"></path><path d="M656.62,333.13c-2-2.81-4.41-6.64-7.18-8.74s-6.39-3.37-9.78-2.57a22.76,22.76,0,0,0,17,11.31" style="fill: rgb(224, 224, 224); transform-origin: 648.16px 327.354px;" id="el6b3wfbkza7h" class="animable"></path><path d="M657.28,329.57A48.14,48.14,0,0,1,654,319.09a16.37,16.37,0,0,1,1.64-10.65c3.6,6.8,4.76,14.11,1.78,21.2" style="fill: rgb(224, 224, 224); transform-origin: 656.423px 319.04px;" id="elgpwvz3sjpqr" class="animable"></path><path d="M659.92,308.44c2-6.75,8.21-11.71,14.88-14a5.46,5.46,0,0,1,2.61-.39,2.24,2.24,0,0,1,1.92,1.6c.25,1.15-.7,2.18-1.59,2.94a50.7,50.7,0,0,1-17.82,9.84" style="fill: rgb(224, 224, 224); transform-origin: 669.645px 301.232px;" id="elr418m9besz" class="animable"></path><path d="M660,302.92c.26-4.35.53-8.76,2-12.88s4.14-8,8.1-9.79c.68,4.39-1.26,8.76-3.6,12.54s-5.15,7.35-6.55,11.57" style="fill: rgb(224, 224, 224); transform-origin: 665.094px 292.305px;" id="el7za7fwo54k8" class="animable"></path><path d="M659.89,305.92c-1.69-4.92-1.86-11.16-4.81-15.45-2.05-3-5.35-5-7.12-8.2a12.47,12.47,0,0,0,.41,9.31,27,27,0,0,0,5.45,7.8c2.18,2.33,4,4.08,6.07,6.54" style="fill: rgb(224, 224, 224); transform-origin: 653.57px 294.095px;" id="ely9by070tfj" class="animable"></path><path d="M659.92,450.68c-.13,0-.25-32.8-.26-73.24s.09-73.24.23-73.24.24,32.79.25,73.24S660.05,450.68,659.92,450.68Z" style="fill: rgb(224, 224, 224); transform-origin: 659.9px 377.44px;" id="elfi5ueslzaib" class="animable"></path><path d="M688.57,352.45a7.51,7.51,0,0,1-1.23.46L684,354.06c-2.86,1-6.79,2.38-11.06,4.13s-8.2,3.28-10.47,5.25a7.66,7.66,0,0,0-2.11,2.78c-.32.77-.38,1.24-.42,1.24s0-.12,0-.35a5,5,0,0,1,.24-.95,7.49,7.49,0,0,1,2.05-3,18.39,18.39,0,0,1,4.55-2.82c1.82-.85,3.83-1.74,6-2.62,4.28-1.75,8.24-3.12,11.13-4,1.45-.45,2.63-.78,3.45-1A6.81,6.81,0,0,1,688.57,352.45Z" style="fill: rgb(224, 224, 224); transform-origin: 674.246px 359.955px;" id="el3vz6ppcapd4" class="animable"></path><path d="M698,329.38a2.17,2.17,0,0,1-.35.37l-1,1-3.93,3.57-13.07,11.64c-5.11,4.55-9.52,8.89-12.57,12.16-1.53,1.63-2.74,3-3.56,3.93-.39.43-.7.79-1,1.08s-.34.37-.36.36a2.93,2.93,0,0,1,.28-.42c.2-.26.49-.66.89-1.14.78-1,2-2.37,3.45-4a164.71,164.71,0,0,1,12.5-12.28c5.12-4.53,9.78-8.6,13.17-11.54l4-3.45,1.11-.92A2.2,2.2,0,0,1,698,329.38Z" style="fill: rgb(224, 224, 224); transform-origin: 680.08px 346.435px;" id="el7f770vrk58v" class="animable"></path><path d="M674.06,350.56c-.14-.06.93-2.52,2-5.63s1.58-5.74,1.71-5.72a18.76,18.76,0,0,1-1.26,5.87,35.29,35.29,0,0,1-1.59,3.94A6.07,6.07,0,0,1,674.06,350.56Z" style="fill: rgb(224, 224, 224); transform-origin: 675.909px 344.885px;" id="eluw568rb1d88" class="animable"></path><path d="M660,370.41a5.11,5.11,0,0,1-.79-.91l-2-2.58c-1.7-2.19-4-5.21-6.66-8.52s-5-6.27-6.78-8.41l-2.06-2.55a6.13,6.13,0,0,1-.71-1,5.29,5.29,0,0,1,.85.85c.53.57,1.27,1.41,2.18,2.45,1.81,2.1,4.27,5,6.89,8.34s4.93,6.36,6.56,8.6c.81,1.12,1.46,2,1.89,2.68A6.21,6.21,0,0,1,660,370.41Z" style="fill: rgb(224, 224, 224); transform-origin: 650.5px 358.425px;" id="el0xt3ln756dt" class="animable"></path><path d="M653.67,362.35a11.56,11.56,0,0,1-2.64-4.93,14,14,0,0,1-.59-5l.21,0c-.1.38-.17.58-.2.57s0-.22,0-.61l.21,0a22.24,22.24,0,0,0,.84,4.83A36.13,36.13,0,0,0,653.67,362.35Z" style="fill: rgb(224, 224, 224); transform-origin: 652.041px 357.365px;" id="eleuwf0qeakqd" class="animable"></path><path d="M645.55,352.14a9,9,0,0,0-1.83-1.07,12.32,12.32,0,0,0-5.11-.4,31.2,31.2,0,0,0-5.13.83,17.37,17.37,0,0,1-2.12.51,7,7,0,0,1,2-.84,23.59,23.59,0,0,1,5.19-1,11.18,11.18,0,0,1,5.26.56A3.19,3.19,0,0,1,645.55,352.14Z" style="fill: rgb(224, 224, 224); transform-origin: 638.455px 351.106px;" id="elhjefjvfl1p" class="animable"></path><path d="M643.63,349.67c0,.07-1.07-.43-2.82-1a28.46,28.46,0,0,0-14.18-1.08c-1.82.33-2.92.67-2.94.59a2.75,2.75,0,0,1,.74-.32,18.84,18.84,0,0,1,2.13-.6,25.17,25.17,0,0,1,14.37,1.1,17.44,17.44,0,0,1,2,.91C643.4,349.49,643.65,349.64,643.63,349.67Z" style="fill: rgb(224, 224, 224); transform-origin: 633.661px 348.181px;" id="elbzvtqwqxdt" class="animable"></path><path d="M659.89,339.21a57.57,57.57,0,0,1-2.06-7.13,56.55,56.55,0,0,1-1.59-7.25,60.92,60.92,0,0,1,2,7.13A60,60,0,0,1,659.89,339.21Z" style="fill: rgb(224, 224, 224); transform-origin: 658.065px 332.02px;" id="eliyl0w0hqz5" class="animable"></path><path d="M660,339.21a37.15,37.15,0,0,0-2.28-4.27,19.09,19.09,0,0,0-3.35-3.46,3.16,3.16,0,0,1,1.29.67,10.54,10.54,0,0,1,2.45,2.52A9.55,9.55,0,0,1,660,339.21Z" style="fill: rgb(224, 224, 224); transform-origin: 657.185px 335.345px;" id="elsxb4qgb6tv" class="animable"></path><path d="M659.92,433.2s-.15-.79-.52-2.19a30.55,30.55,0,0,0-2.19-5.67A78.72,78.72,0,0,0,645.58,409c-2.59-3-5.11-5.77-7.25-8.44a59.5,59.5,0,0,1-5.18-7.48,36.34,36.34,0,0,1-2.62-5.55c-.24-.69-.42-1.22-.51-1.59a2.18,2.18,0,0,1-.14-.57s.28.75.82,2.09a40.38,40.38,0,0,0,2.74,5.45,63,63,0,0,0,5.23,7.37c2.15,2.65,4.67,5.44,7.27,8.41,5.25,5.89,9.37,11.84,11.57,16.54a28.11,28.11,0,0,1,2.07,5.78c.15.71.25,1.26.29,1.64A3.19,3.19,0,0,1,659.92,433.2Z" style="fill: rgb(224, 224, 224); transform-origin: 644.9px 409.285px;" id="elyxxpi1ki6mf" class="animable"></path><path d="M685.81,404a13.82,13.82,0,0,1-1.35.76,28.84,28.84,0,0,0-3.52,2.33,40.05,40.05,0,0,0-4.63,4.21c-1.62,1.72-3.29,3.71-5,5.84-3.41,4.28-6.6,8.07-8.51,11.09-1,1.5-1.67,2.76-2.13,3.65a15.19,15.19,0,0,1-.75,1.37s0-.14.12-.39.24-.61.46-1.06a33.48,33.48,0,0,1,2-3.75c1.85-3.1,5-6.93,8.42-11.21,1.71-2.13,3.4-4.13,5.06-5.84a37.34,37.34,0,0,1,4.73-4.18,25,25,0,0,1,3.64-2.22c.45-.23.82-.37,1.06-.47S685.81,403.93,685.81,404Z" style="fill: rgb(224, 224, 224); transform-origin: 672.865px 418.613px;" id="el7uq7vg6qdb9" class="animable"></path><path d="M686.32,413.44a21.39,21.39,0,0,1-2.87.41,38.36,38.36,0,0,0-6.8,1.34,20.42,20.42,0,0,0-6.09,3.2c-1.41,1.08-2.07,2-2.13,1.93s.11-.26.42-.66a10.87,10.87,0,0,1,1.5-1.53,18.38,18.38,0,0,1,6.15-3.39,30.81,30.81,0,0,1,6.92-1.22A14.68,14.68,0,0,1,686.32,413.44Z" style="fill: rgb(224, 224, 224); transform-origin: 677.369px 416.863px;" id="elytszke5e77p" class="animable"></path><path d="M669.26,419.28c-.15-.09,1.15-2.06,2.15-4.72s1.16-5,1.33-5a4.52,4.52,0,0,1,0,1.54,16.17,16.17,0,0,1-.84,3.62,17.1,17.1,0,0,1-1.66,3.33A4.48,4.48,0,0,1,669.26,419.28Z" style="fill: rgb(224, 224, 224); transform-origin: 671.027px 414.42px;" id="eljqsrurz1ktl" class="animable"></path><path d="M694.2,378.47a2.09,2.09,0,0,1-.46.25l-1.35.61c-.59.25-1.31.58-2.11,1s-1.76.85-2.74,1.44l-1.57.89c-.54.31-1.08.68-1.65,1-1.15.7-2.31,1.56-3.54,2.44a61,61,0,0,0-13.65,14.12c-.83,1.26-1.66,2.45-2.32,3.63-.33.58-.69,1.13-1,1.68l-.83,1.6c-.56,1-1,2-1.35,2.78s-.69,1.55-.93,2.15l-.56,1.37a3.6,3.6,0,0,1-.23.47,1.67,1.67,0,0,1,.14-.5q.2-.56.48-1.41c.21-.61.48-1.35.86-2.18s.75-1.82,1.29-2.83l.81-1.62c.29-.56.63-1.12,1-1.71.65-1.2,1.46-2.4,2.29-3.68a65.23,65.23,0,0,1,6.27-7.69,63.93,63.93,0,0,1,7.48-6.53c1.25-.88,2.42-1.73,3.59-2.42.58-.35,1.13-.72,1.68-1l1.59-.87c1-.58,2-1,2.78-1.39s1.56-.7,2.16-.93l1.38-.53A2.42,2.42,0,0,1,694.2,378.47Z" style="fill: rgb(224, 224, 224); transform-origin: 677.055px 396.185px;" id="elb3uping0ly7" class="animable"></path><path d="M673.71,392.21a3.16,3.16,0,0,1,1.12-1.68,7.09,7.09,0,0,1,4.54-1.75,12.44,12.44,0,0,1,4.78.94,6.5,6.5,0,0,1,1.81.88A12.1,12.1,0,0,1,684,390a14.6,14.6,0,0,0-4.65-.77,7.41,7.41,0,0,0-4.34,1.52A11.64,11.64,0,0,0,673.71,392.21Z" style="fill: rgb(224, 224, 224); transform-origin: 679.835px 390.495px;" id="elm2adb24kzt" class="animable"></path><path d="M670.64,395.37a12.13,12.13,0,0,0,1-8.58,2.92,2.92,0,0,1,.54,1.22,8.73,8.73,0,0,1-.74,6.29C671,395,670.69,395.4,670.64,395.37Z" style="fill: rgb(224, 224, 224); transform-origin: 671.55px 391.081px;" id="elg3yj9nwbzob" class="animable"></path><path d="M637.27,437.89c.71,12.54,4.48,25.28,10.29,38.17h25.26c5.54-12.76,9.06-25.49,9.68-38.17Z" style="fill: rgb(224, 224, 224); transform-origin: 659.885px 456.975px;" id="elxel2utzo1x" class="animable"></path><path d="M678.41,458.17c0,.13-8.32.24-18.58.24s-18.57-.11-18.57-.24,8.31-.24,18.57-.24S678.41,458,678.41,458.17Z" style="fill: rgb(250, 250, 250); transform-origin: 659.835px 458.17px;" id="elyewvu7ixpid" class="animable"></path><path d="M677.84,462.71c0,.13-7.79.24-17.41.24s-17.41-.11-17.41-.24,7.79-.24,17.41-.24S677.84,462.58,677.84,462.71Z" style="fill: rgb(250, 250, 250); transform-origin: 660.43px 462.71px;" id="elplgj25lj3f" class="animable"></path><path d="M648,446.12a70.69,70.69,0,0,1,0,11.64,70.69,70.69,0,0,1,0-11.64Z" style="fill: rgb(250, 250, 250); transform-origin: 648px 451.94px;" id="elh8u79tparb6" class="animable"></path><path d="M661.5,446.12a75.75,75.75,0,0,1,0,12.05,79,79,0,0,1,0-12.05Z" style="fill: rgb(250, 250, 250); transform-origin: 661.505px 452.145px;" id="elh03o3gcdw4p" class="animable"></path><path d="M674.21,446a82.2,82.2,0,0,1,0,12.29,78.79,78.79,0,0,1,0-12.29Z" style="fill: rgb(250, 250, 250); transform-origin: 674.205px 452.145px;" id="elyppsxr2wqe" class="animable"></path><path d="M681.7,446.12c0,.13-9.76.24-21.79.24s-21.78-.11-21.78-.24,9.75-.24,21.78-.24S681.7,446,681.7,446.12Z" style="fill: rgb(250, 250, 250); transform-origin: 659.915px 446.12px;" id="el6c4vedk9f9i" class="animable"></path><path d="M166.91,276.76a33.54,33.54,0,0,1,8.26-3.59l1.7-8.18,13.82-.24,2,8.11a33.6,33.6,0,0,1,8.39,3.3l7-4.58,9.94,9.6-4.33,7.14a33.7,33.7,0,0,1,3.59,8.26l8.18,1.71.24,13.81-8.11,2a33.6,33.6,0,0,1-3.3,8.39l4.58,7-9.6,9.94-7.14-4.33a34,34,0,0,1-8.26,3.6l-1.71,8.17-13.81.25-2-8.12a33.6,33.6,0,0,1-8.39-3.3l-7,4.58-9.94-9.6,4.33-7.14a34,34,0,0,1-3.6-8.26l-8.17-1.7-.25-13.82,8.12-2a33.38,33.38,0,0,1,3.3-8.38l-4.58-7,9.6-9.94,7.14,4.33Zm7.36,18.41a14.83,14.83,0,1,0,21-.37A14.83,14.83,0,0,0,174.27,295.17Z" style="fill: rgb(235, 235, 235); transform-origin: 184.515px 305.935px;" id="el8kmnb93ef6b" class="animable"></path><path d="M73.49,89.63a21.69,21.69,0,0,1,5.24-2.28l1.08-5.19L88.58,82l1.26,5.15a21.72,21.72,0,0,1,5.32,2.09l4.43-2.9,6.3,6.09L103.15,97a21.76,21.76,0,0,1,2.28,5.25l5.18,1.08.16,8.76-5.15,1.27a21.49,21.49,0,0,1-2.09,5.31l2.9,4.44-6.09,6.3-4.53-2.74a21.11,21.11,0,0,1-5.24,2.27l-1.08,5.19-8.77.16-1.26-5.15A21.72,21.72,0,0,1,74.14,127l-4.43,2.9-6.3-6.09,2.74-4.53a21.69,21.69,0,0,1-2.28-5.24L58.69,113l-.16-8.77,5.15-1.26a21.41,21.41,0,0,1,2.09-5.32l-2.9-4.43L69,86.88l4.53,2.75Zm4.67,11.68a9.4,9.4,0,1,0,13.3-.23A9.41,9.41,0,0,0,78.16,101.31Z" style="fill: rgb(224, 224, 224); transform-origin: 84.65px 108.145px;" id="ele1h9yotianm" class="animable"></path><path d="M628.61,93.8a28.54,28.54,0,0,1,7-3.06l1.46-7,11.79-.2,1.7,6.92a28.84,28.84,0,0,1,7.16,2.82l6-3.91,8.49,8.2-3.69,6.09a28.77,28.77,0,0,1,3.06,7.06l7,1.45.2,11.8-6.92,1.7a29,29,0,0,1-2.82,7.16l3.91,6-8.2,8.49-6.09-3.69a29,29,0,0,1-7.06,3.06l-1.45,7-11.8.21-1.7-6.93a29,29,0,0,1-7.16-2.81l-6,3.91-8.49-8.2,3.7-6.1a28.57,28.57,0,0,1-3.07-7l-7-1.46-.21-11.79,6.93-1.7a29,29,0,0,1,2.81-7.16l-3.91-6,8.2-8.49,6.1,3.69Zm6.29,15.72a12.66,12.66,0,1,0,17.9-.31A12.66,12.66,0,0,0,634.9,109.52Z" style="fill: rgb(224, 224, 224); transform-origin: 643.6px 118.72px;" id="elanp8olelft8" class="animable"></path><path d="M461.82,281.34a25.1,25.1,0,0,1,6.1-2.64l1.25-6,10.2-.18,1.47,6A24.68,24.68,0,0,1,487,280.9l5.15-3.38,7.34,7.09-3.2,5.26A24.75,24.75,0,0,1,499,296l6,1.26.18,10.19-6,1.47a25.31,25.31,0,0,1-2.43,6.18l3.37,5.16-7.08,7.33-5.26-3.19a25.3,25.3,0,0,1-6.1,2.65l-1.26,6-10.19.18-1.47-6a24.38,24.38,0,0,1-6.18-2.43l-5.16,3.38-7.33-7.09,3.19-5.26a25.13,25.13,0,0,1-2.65-6.1l-6-1.25-.18-10.2,6-1.47a24.68,24.68,0,0,1,2.43-6.18l-3.38-5.15,7.08-7.34,5.27,3.19Zm5.44,13.59a10.93,10.93,0,1,0,15.46-.28A10.92,10.92,0,0,0,467.26,294.93Z" style="fill: rgb(245, 245, 245); transform-origin: 474.815px 302.875px;" id="elz3fbcjniaud" class="animable"></path><path d="M671.13,54.61a11.29,11.29,0,0,1,2.79-1.21l.57-2.76,4.66-.08.67,2.73a11.34,11.34,0,0,1,2.82,1.11L685,52.86l3.35,3.24-1.46,2.4a11.29,11.29,0,0,1,1.21,2.79l2.76.57.08,4.66-2.74.67A11.41,11.41,0,0,1,687.09,70l1.54,2.35-3.23,3.35L683,74.26a11.22,11.22,0,0,1-2.78,1.21l-.58,2.76-4.65.08-.67-2.73a11.84,11.84,0,0,1-2.83-1.12L669.13,76l-3.35-3.24,1.46-2.4A11.08,11.08,0,0,1,666,67.58L663.27,67l-.08-4.66,2.73-.67A11.41,11.41,0,0,1,667,58.85l-1.54-2.35,3.24-3.35,2.4,1.46Zm2.49,6.2a5,5,0,1,0,7.06-.12A5,5,0,0,0,673.62,60.81Z" style="fill: rgb(224, 224, 224); transform-origin: 677.065px 64.435px;" id="elf5egss9tk2e" class="animable"></path><path d="M665.53,199.77a10.93,10.93,0,0,1,2.79-1.21l.57-2.76,4.66-.08.67,2.73a11.34,11.34,0,0,1,2.82,1.11L679.4,198l3.35,3.24-1.46,2.4a11.29,11.29,0,0,1,1.21,2.79l2.76.57.08,4.66-2.74.67a11.19,11.19,0,0,1-1.11,2.82l1.54,2.36-3.23,3.35-2.41-1.46a11.22,11.22,0,0,1-2.78,1.21l-.58,2.76-4.65.08-.67-2.74a11.41,11.41,0,0,1-2.83-1.11l-2.35,1.55-3.35-3.24,1.46-2.41a10.86,10.86,0,0,1-1.21-2.78l-2.76-.57-.08-4.66,2.73-.67a11.41,11.41,0,0,1,1.11-2.83l-1.54-2.35,3.24-3.35,2.4,1.46ZM668,206a5,5,0,1,0,7.06-.12A5,5,0,0,0,668,206Z" style="fill: rgb(245, 245, 245); transform-origin: 671.465px 209.585px;" id="elz3xrtgg3vf" class="animable"></path><path d="M191.72,377.17a15.2,15.2,0,0,1,3.78-1.64l.78-3.74,6.31-.11.91,3.7a15.58,15.58,0,0,1,3.84,1.51l3.19-2.09,4.54,4.39-2,3.26a15.61,15.61,0,0,1,1.65,3.78l3.73.78.11,6.31-3.7.91a15.51,15.51,0,0,1-1.51,3.83l2.09,3.2-4.39,4.54-3.26-2a15.41,15.41,0,0,1-3.78,1.64l-.78,3.74-6.31.11L196,405.6a15.24,15.24,0,0,1-3.83-1.5l-3.2,2.09-4.54-4.39,2-3.26a15.58,15.58,0,0,1-1.64-3.78l-3.74-.78-.11-6.31,3.71-.91a15.55,15.55,0,0,1,1.5-3.84l-2.09-3.19,4.39-4.54,3.26,2Zm3.37,8.41a6.78,6.78,0,1,0,9.58-.17A6.78,6.78,0,0,0,195.09,385.58Z" style="fill: rgb(245, 245, 245); transform-origin: 199.75px 390.485px;" id="elmm98gm6dbkf" class="animable"></path><polygon points="347.6 448.72 347.6 475.84 387.25 475.84 430.98 475.84 430.98 448.72 347.6 448.72" style="fill: rgb(245, 245, 245); transform-origin: 389.29px 462.28px;" id="elvh1spsktf8j" class="animable"></polygon><polygon points="344.1 441.14 344.1 448.72 433.9 448.72 433.9 441.14 387.25 441.14 344.1 441.14" style="fill: rgb(224, 224, 224); transform-origin: 389px 444.93px;" id="eln7cufnzhanq" class="animable"></polygon><polygon points="389 475.84 430.98 475.84 430.98 448.72 433.9 448.72 433.9 441.14 387.25 441.14 387.25 448.02 389 475.84" style="fill: rgb(224, 224, 224); transform-origin: 410.575px 458.49px;" id="elmlsdwpbvq1" class="animable"></polygon><rect x="359.26" y="453.09" width="16.91" height="4.08" style="fill: rgb(224, 224, 224); transform-origin: 367.715px 455.13px;" id="el2kqwsgcde78" class="animable"></rect><rect x="357.08" y="462.28" width="21.71" height="8.62" style="fill: rgb(255, 255, 255); transform-origin: 367.935px 466.59px;" id="eldlwl9te46n" class="animable"></rect><polygon points="360.42 414.06 360.42 441.18 400.08 441.18 443.81 441.18 443.81 414.06 360.42 414.06" style="fill: rgb(245, 245, 245); transform-origin: 402.115px 427.62px;" id="elff6axtr52s" class="animable"></polygon><polygon points="356.93 406.48 356.93 414.06 446.73 414.06 446.73 406.48 400.08 406.48 356.93 406.48" style="fill: rgb(224, 224, 224); transform-origin: 401.83px 410.27px;" id="el8ve4pd37qbn" class="animable"></polygon><polygon points="401.83 441.18 443.81 441.18 443.81 414.06 446.73 414.06 446.73 406.48 400.08 406.48 400.08 413.36 401.83 441.18" style="fill: rgb(224, 224, 224); transform-origin: 423.405px 423.83px;" id="elbd22xllm6bu" class="animable"></polygon><rect x="372.09" y="418.43" width="16.91" height="4.08" style="fill: rgb(224, 224, 224); transform-origin: 380.545px 420.47px;" id="eljcjucjrht3" class="animable"></rect><rect x="369.91" y="427.62" width="21.71" height="8.62" style="fill: rgb(255, 255, 255); transform-origin: 380.765px 431.93px;" id="el6n8dookb8yg" class="animable"></rect></g><g id="freepik--Floor--inject-4" class="animable" style="transform-origin: 375px 475.83px;"><path d="M705.41,475.83c0,.15-147.94.26-330.39.26S44.59,476,44.59,475.83s147.91-.26,330.43-.26S705.41,475.69,705.41,475.83Z" style="fill: rgb(38, 50, 56); transform-origin: 375px 475.83px;" id="elj5aplotrw0t" class="animable"></path></g><g id="freepik--Plant--inject-4" class="animable animator-hidden" style="transform-origin: 110.925px 402.89px;"><path d="M111.35,447.26s-4.23-29.05-3.87-45.95,0-35.91,0-35.91h1.94s-1.32,33.54.12,53.78,5.21,28.08,5.21,28.08h-3.38" style="fill: rgb(38, 50, 56); transform-origin: 111.104px 406.33px;" id="elrtjvh2lycs" class="animable"></path><path d="M123.94,332.71a5.21,5.21,0,0,0-1.78-2.6c-1.23-.78-2.85-.45-4.23,0-5.88,2.08-11.1,13.05-13.48,18.82l7.81,26.32C126.36,362.2,128.8,345,123.94,332.71Z" style="fill: rgb(69, 90, 100); transform-origin: 115.338px 352.445px;" id="elf1f61hp9aie" class="animable"></path><path d="M121.71,331.18a1.55,1.55,0,0,1-.12.34c-.1.25-.22.57-.38,1-.34.83-.82,2-1.4,3.53-1.15,3-2.61,7.16-3.92,11.87s-2.2,9.05-2.76,12.2c-.28,1.58-.49,2.86-.62,3.74-.07.42-.12.75-.17,1a1.5,1.5,0,0,1-.08.35,2,2,0,0,1,0-.36c0-.27.06-.61.11-1,.09-.9.27-2.18.52-3.77a110.66,110.66,0,0,1,2.67-12.25,112.71,112.71,0,0,1,4-11.87c.6-1.48,1.12-2.68,1.5-3.49.17-.38.32-.69.43-.93A1.31,1.31,0,0,1,121.71,331.18Z" style="fill: rgb(38, 50, 56); transform-origin: 116.981px 348.195px;" id="elj47g7bs9vt" class="animable"></path><path d="M108.79,381.59a23.86,23.86,0,0,1-12-20c-.28-5.84,1.52-11.57,3.55-17.05a2.22,2.22,0,0,1,.83-1.24,2.08,2.08,0,0,1,2,.31c5.32,3,8.55,8.8,10.26,14.68a29.6,29.6,0,0,1,1.2,12.07,20,20,0,0,1-5.79,11.24" style="fill: rgb(69, 90, 100); transform-origin: 105.781px 362.385px;" id="el0vx31gtmrqub" class="animable"></path><path d="M108.79,381.59a1.6,1.6,0,0,1,0-.35c0-.27,0-.61,0-1,0-.87,0-2.14-.11-3.7a102.64,102.64,0,0,0-1.35-12.16c-.82-4.72-1.8-8.94-2.53-12-.36-1.49-.65-2.71-.86-3.61-.1-.4-.17-.72-.23-1a1.56,1.56,0,0,1-.06-.35,1.38,1.38,0,0,1,.12.33l.29,1c.24.84.57,2.07,1,3.59.79,3,1.81,7.26,2.62,12a88.64,88.64,0,0,1,1.27,12.21c0,1.57,0,2.84,0,3.72,0,.41,0,.74,0,1A1.22,1.22,0,0,1,108.79,381.59Z" style="fill: rgb(38, 50, 56); transform-origin: 106.3px 364.505px;" id="el6isjc9d48w7" class="animable"></path><g id="elyy3z6frj9pm"><g style="opacity: 0.3; transform-origin: 105.781px 362.385px;" class="animable" id="elq24dhzucv3"><path d="M108.79,381.59a23.86,23.86,0,0,1-12-20c-.28-5.84,1.52-11.57,3.55-17.05a2.22,2.22,0,0,1,.83-1.24,2.08,2.08,0,0,1,2,.31c5.32,3,8.55,8.8,10.26,14.68a29.6,29.6,0,0,1,1.2,12.07,20,20,0,0,1-5.79,11.24" id="elv2hc4gvduo" class="animable" style="transform-origin: 105.781px 362.385px;"></path></g></g><path d="M117.05,426c7.21,1.59,13.14,6.67,20.09,9.14,4.6,1.64,9.8,2.21,13.47,5.43-.88-2.23-3-3.71-5-5a89.31,89.31,0,0,0-18.21-8.7c-3.27-1.13-6.81-2.07-10.15-1.14" style="fill: rgb(69, 90, 100); transform-origin: 133.83px 432.961px;" id="el1wjatau7oelh" class="animable"></path><path d="M106.63,432.45c-9-.14-18.52-7.82-27.5-8.28,9.4-3,22.86-.56,27.5,8.28" style="fill: rgb(69, 90, 100); transform-origin: 92.88px 427.699px;" id="eltgss01ots1" class="animable"></path><path d="M110.16,410.81a29.38,29.38,0,0,1,14.43-1,87.5,87.5,0,0,1,14.08,3.82c-.47-3.13-3-5.48-5.38-7.56a37.18,37.18,0,0,0-5.66-4.35,12.59,12.59,0,0,0-6.78-1.91,10.7,10.7,0,0,0-7.48,3.77,12.37,12.37,0,0,0-3.21,7.21" style="fill: rgb(69, 90, 100); transform-origin: 124.415px 406.72px;" id="ely1v6ip5ach" class="animable"></path><path d="M91.64,400.85C86,396,77.36,396.47,69.89,396.64a177,177,0,0,1,33.73,21C103.93,412.38,98.82,407,91.64,400.85Z" style="fill: rgb(69, 90, 100); transform-origin: 86.7617px 407.092px;" id="elwq8j0r74cq" class="animable"></path><g id="elmlj33suuj5a"><g style="opacity: 0.3; transform-origin: 86.7617px 407.092px;" class="animable" id="elzwlq6zwibhi"><path d="M91.64,400.85C86,396,77.36,396.47,69.89,396.64a177,177,0,0,1,33.73,21C103.93,412.38,98.82,407,91.64,400.85Z" id="el9h3h76l0eac" class="animable" style="transform-origin: 86.7617px 407.092px;"></path></g></g><path d="M112.71,394.15a64.1,64.1,0,0,1,8.74-5.08c3-1.35,5.78-3.52,8.67-5.08,3.74-2,7-4.85,10.42-7.36s7.21-4.78,11.42-5.45a22.45,22.45,0,0,0-10.39.6,66.45,66.45,0,0,0-9.78,3.81c-4.43,2-8.94,4-12.56,7.28s-6.9,6.44-6.52,11.28" style="fill: rgb(69, 90, 100); transform-origin: 132.32px 382.491px;" id="elx38c9i0ts2e" class="animable"></path><path d="M137,432.45a1.1,1.1,0,0,1-.28-.12l-.79-.41c-.68-.36-1.65-.9-2.88-1.51-.61-.32-1.28-.66-2-1s-1.51-.72-2.35-1.08a34,34,0,0,0-5.55-1.93,11.9,11.9,0,0,0-5.79-.15,18.23,18.23,0,0,0-2.45.73,12.18,12.18,0,0,0-2,1,12.38,12.38,0,0,0-2.49,2.06c-.52.56-.78.9-.8.88s0-.1.16-.26.3-.41.54-.71a12,12,0,0,1,2.46-2.16,12.89,12.89,0,0,1,2-1.07,16.13,16.13,0,0,1,2.49-.78,12.08,12.08,0,0,1,5.93.12,33,33,0,0,1,5.6,2q1.26.56,2.34,1.11c.73.35,1.4.7,2,1,1.22.64,2.18,1.21,2.84,1.6l.76.46C136.89,432.38,137,432.44,137,432.45Z" style="fill: rgb(38, 50, 56); transform-origin: 123.307px 429.039px;" id="elqtgbnc9mex" class="animable"></path><path d="M99.9,428a2.1,2.1,0,0,1,.57.17,11.3,11.3,0,0,1,1.47.64,18.13,18.13,0,0,1,4.31,3,17.84,17.84,0,0,1,3.23,4.19,14.73,14.73,0,0,1,.7,1.44,1.86,1.86,0,0,1,.18.56s-.39-.74-1.08-1.89a20.36,20.36,0,0,0-3.25-4.06,20,20,0,0,0-4.2-3.09C100.66,428.34,99.88,428,99.9,428Z" style="fill: rgb(38, 50, 56); transform-origin: 105.13px 433px;" id="elzs25xeu2po" class="animable"></path><path d="M79.94,400.39a1.76,1.76,0,0,1,.38.12l1.09.38,1.71.63c.66.25,1.38.61,2.2,1A52.36,52.36,0,0,1,97.07,410a57.33,57.33,0,0,1,5.48,5.39,59.78,59.78,0,0,1,3.88,4.93c1,1.46,1.82,2.67,2.35,3.51l.62,1a1.61,1.61,0,0,1,.2.35,1.57,1.57,0,0,1-.26-.31c-.15-.21-.38-.52-.66-.94-.57-.82-1.38-2-2.43-3.45s-2.37-3.1-3.93-4.86a59.25,59.25,0,0,0-5.46-5.35,55.17,55.17,0,0,0-11.64-7.52c-.8-.37-1.52-.75-2.17-1L81.36,401l-1.06-.44Z" style="fill: rgb(38, 50, 56); transform-origin: 94.77px 412.785px;" id="elw6tk0csbtbr" class="animable"></path><path d="M123.7,405.74a3.69,3.69,0,0,1-.72-.1l-.83-.15c-.32-.06-.7-.06-1.11-.11a11.42,11.42,0,0,0-6.2,1.23A11.18,11.18,0,0,0,112,408.7a12.52,12.52,0,0,0-1.81,2.24,20.09,20.09,0,0,0-1.25,2.37,3.45,3.45,0,0,1,.19-.7,9.85,9.85,0,0,1,.86-1.79,11.92,11.92,0,0,1,1.8-2.33,11.22,11.22,0,0,1,2.88-2.17,11,11,0,0,1,6.37-1.16,9.87,9.87,0,0,1,1.12.15l.83.21A2.68,2.68,0,0,1,123.7,405.74Z" style="fill: rgb(38, 50, 56); transform-origin: 116.32px 409.196px;" id="elanra0gx45vs" class="animable"></path><path d="M132.77,377.6a1.91,1.91,0,0,1-.34.21l-1,.55c-.88.47-2.14,1.17-3.67,2.07s-3.31,2-5.22,3.4a43.77,43.77,0,0,0-5.84,4.89,15,15,0,0,0-2.39,3.09c-.59,1.14-1.15,2.23-1.67,3.29a57.14,57.14,0,0,0-2.51,5.7,36.65,36.65,0,0,0-1.22,4c-.23,1-.31,1.51-.34,1.51a1.35,1.35,0,0,1,0-.4c0-.26.09-.65.19-1.14a29.8,29.8,0,0,1,1.13-4.06,54.11,54.11,0,0,1,2.45-5.76c.52-1.06,1.08-2.17,1.66-3.3a14.75,14.75,0,0,1,2.44-3.17,42,42,0,0,1,5.89-4.91c1.93-1.36,3.75-2.47,5.29-3.36s2.83-1.54,3.72-2l1-.49A2.21,2.21,0,0,1,132.77,377.6Z" style="fill: rgb(38, 50, 56); transform-origin: 120.663px 391.955px;" id="elsebhu0903td" class="animable"></path><path d="M107.47,404.92a2.63,2.63,0,0,1-.18-.76c-.11-.55-.24-1.25-.4-2.08a58.93,58.93,0,0,0-1.7-6.77,58.64,58.64,0,0,0-2.58-6.49c-.35-.77-.65-1.42-.88-1.94a3.18,3.18,0,0,1-.29-.72,3.75,3.75,0,0,1,.4.67c.24.44.58,1.08,1,1.89a45.54,45.54,0,0,1,2.68,6.49,46.58,46.58,0,0,1,1.63,6.83c.14.88.24,1.6.29,2.1A3.79,3.79,0,0,1,107.47,404.92Z" style="fill: rgb(38, 50, 56); transform-origin: 104.459px 395.54px;" id="el9z2dlzm2mes" class="animable"></path><path d="M106.81,384.39a24.37,24.37,0,0,0-2.93-9.74,32.17,32.17,0,0,0-21.8-16.25q10.1,15,20.18,30.08l2.61,5.36A15.38,15.38,0,0,0,106.81,384.39Z" style="fill: rgb(69, 90, 100); transform-origin: 94.4972px 376.12px;" id="elrq971b0bw3" class="animable"></path><rect x="88.84" y="443.67" width="46.92" height="8.32" style="fill: #DC2626; transform-origin: 112.3px 447.83px;" id="ely4r8lhudjvd" class="animable"></rect><polygon points="92.34 450.33 96.34 476.14 127.49 476.14 132.25 450.33 92.34 450.33" style="fill: #DC2626; transform-origin: 112.295px 463.235px;" id="elb84mf49eo4p" class="animable"></polygon><path d="M135.73,452c0,.09-10.58.17-23.63.17s-23.64-.08-23.64-.17,10.58-.16,23.64-.16S135.73,451.9,135.73,452Z" style="fill: rgb(38, 50, 56); transform-origin: 112.095px 452.005px;" id="elyr4butf8kd" class="animable"></path></g><g id="freepik--magnifying-glass--inject-4" class="animable" style="transform-origin: 322.177px 419.396px;"><path d="M294.14,471.77a54.81,54.81,0,1,1,9.73-103.91h0a54.8,54.8,0,0,1-9.73,103.91ZM271.31,368.34a51.07,51.07,0,1,0,31.12,2.89A51.06,51.06,0,0,0,271.31,368.34Z" style="fill: rgb(69, 90, 100); transform-origin: 282.322px 418.252px;" id="el94m8qs2fv48" class="animable"></path><path d="M294.14,471.77a54.81,54.81,0,1,1,9.73-103.91h0a54.8,54.8,0,0,1-9.73,103.91ZM271.31,368.34a51.07,51.07,0,1,0,31.12,2.89A51.06,51.06,0,0,0,271.31,368.34Z" style="fill: rgb(38, 50, 56); transform-origin: 282.322px 418.252px;" id="el49d7b9liyxd" class="animable"></path><path d="M292.26,474.06A54.81,54.81,0,1,1,302,370.15h0a54.8,54.8,0,0,1-9.74,103.91ZM269.43,370.63a51.1,51.1,0,1,0,31.13,2.9A51.15,51.15,0,0,0,269.43,370.63Z" style="fill: rgb(69, 90, 100); transform-origin: 280.449px 420.54px;" id="elvl4q4iw483f" class="animable"></path><path d="M418.43,470.69l-.88,2.26c-.79,2-4.3,2.55-6.47,1.69L329,442.69l4.13-10.62L415.09,464C417.75,465.1,419.44,468.09,418.43,470.69Z" style="fill: rgb(69, 90, 100); transform-origin: 373.863px 453.551px;" id="el6ej44zvgvkk" class="animable"></path><path d="M304.7,399.78c.09.11-10.33,8.7-23.27,19.18s-23.51,18.9-23.6,18.78,10.32-8.7,23.27-19.18S304.61,399.67,304.7,399.78Z" style="fill: rgb(38, 50, 56); transform-origin: 281.265px 418.76px;" id="ely6a7dzvi8sk" class="animable"></path><path d="M290.49,396.6c.09.11-7.62,6.67-17.21,14.64s-17.45,14.36-17.54,14.25,7.61-6.67,17.21-14.65S290.39,396.49,290.49,396.6Z" style="fill: rgb(38, 50, 56); transform-origin: 273.115px 411.045px;" id="el91eg67j1wla" class="animable"></path><path d="M303.54,416.51c.09.11-5.18,4.65-11.77,10.13s-12,9.84-12.12,9.73,5.18-4.65,11.78-10.13S303.45,416.4,303.54,416.51Z" style="fill: rgb(38, 50, 56); transform-origin: 291.595px 426.44px;" id="eltwh0zq05ga" class="animable"></path></g><g id="freepik--chart-6--inject-4" class="animable" style="transform-origin: 615.378px 258.471px;"><path d="M654.34,256.46a37.65,37.65,0,1,1-38.25-37.21A37.78,37.78,0,0,1,654.34,256.46Zm-55.65.9A18,18,0,1,0,616.4,239,18.06,18.06,0,0,0,598.69,257.36Z" style="fill: rgb(245, 245, 245); transform-origin: 616.693px 256.896px;" id="ellr1xtmxcqcr" class="animable"></path><path d="M654.34,256.46a37.78,37.78,0,0,1-37,38.42L617,275.15A18.09,18.09,0,0,0,616.4,239l-.31-19.73A37.77,37.77,0,0,1,654.34,256.46Z" style="fill: rgb(69, 90, 100); transform-origin: 635.218px 257.073px;" id="elh0l5h9mfol" class="animable"></path><path d="M654.34,256.46a37.65,37.65,0,1,1-38.25-37.21A37.78,37.78,0,0,1,654.34,256.46Zm-55.65.9A18,18,0,1,0,616.4,239,18.06,18.06,0,0,0,598.69,257.36Z" style="fill: none; transform-origin: 616.693px 256.896px;" id="el8qkveiogg3w" class="animable"></path><path d="M598.69,257.36a1.36,1.36,0,0,1,0-.3v-.86a9.25,9.25,0,0,1,.09-1.39,13.09,13.09,0,0,1,.32-1.89A16.89,16.89,0,0,1,601,248a18.07,18.07,0,0,1,21.68-8.27,17.26,17.26,0,0,1,4.66,2.42,20.18,20.18,0,0,1,2.1,1.74,21.55,21.55,0,0,1,1.83,2.09,18.25,18.25,0,0,1,.34,21.63,19.3,19.3,0,0,1-1.75,2.15,21.65,21.65,0,0,1-2,1.81,17.06,17.06,0,0,1-4.59,2.56,18.08,18.08,0,0,1-21.93-7.56,17.07,17.07,0,0,1-2-4.82,12.38,12.38,0,0,1-.37-1.88,7.83,7.83,0,0,1-.14-1.39c0-.36,0-.64,0-.86a1,1,0,0,1,0-.29,30.83,30.83,0,0,0,.73,4.36,17.49,17.49,0,0,0,2.08,4.73,18.07,18.07,0,0,0,4.63,5A17.64,17.64,0,0,0,623,273.72a16.43,16.43,0,0,0,4.45-2.52,17.31,17.31,0,0,0,2-1.76,19.22,19.22,0,0,0,1.71-2.09,17.79,17.79,0,0,0-.34-21,19.33,19.33,0,0,0-1.77-2,19,19,0,0,0-2-1.69,16.37,16.37,0,0,0-4.53-2.37,17.62,17.62,0,0,0-16.8,2.81,18.12,18.12,0,0,0-4.47,5.14,17.93,17.93,0,0,0-1.93,4.8A30.62,30.62,0,0,0,598.69,257.36Z" style="fill: rgb(38, 50, 56); transform-origin: 616.837px 257.028px;" id="elwzqxi12csxi" class="animable"></path><path d="M654.34,256.46s0-.21-.07-.61l-.14-1.79c0-.4-.07-.83-.1-1.32s-.17-1-.27-1.57a29,29,0,0,0-.84-3.88,36.26,36.26,0,0,0-4.33-9.94A37.68,37.68,0,0,0,623,220a36.73,36.73,0,0,0-4.75-.48c-.81,0-1.62-.08-2.44,0l-2.48.17c-.42,0-.84,0-1.25.1l-1.25.22c-.83.15-1.68.26-2.51.45a39.78,39.78,0,0,0-5,1.56,39.13,39.13,0,0,0-4.84,2.25c-.78.45-1.53,1-2.31,1.44a20.22,20.22,0,0,0-2.23,1.6,41.48,41.48,0,0,0-4.17,3.7l-1.87,2.13-.47.54-.42.58-.83,1.16-.84,1.17-.73,1.25-.74,1.25-.36.63-.31.66L582,243l-1,2.79a37.29,37.29,0,0,0,.37,23.65c.36.92.71,1.84,1.06,2.76s.88,1.75,1.31,2.62l.33.66.38.61.78,1.23.77,1.23.87,1.14.88,1.13.43.57.49.52,1.93,2.07a41.31,41.31,0,0,0,4.3,3.57,19.3,19.3,0,0,0,2.28,1.53c.79.45,1.56.94,2.35,1.36a38.2,38.2,0,0,0,4.92,2.09,39.47,39.47,0,0,0,5,1.4c.84.16,1.69.25,2.52.37l1.26.18c.41.05.83,0,1.25.06l2.48.09c.83,0,1.64-.09,2.45-.14a33.43,33.43,0,0,0,4.73-.63,37.1,37.1,0,0,0,15.65-7.31,37.48,37.48,0,0,0,9.35-10.83,36,36,0,0,0,4-10.08,27.32,27.32,0,0,0,.72-3.9c.08-.57.17-1.1.22-1.58s0-.92.05-1.32c0-.77.07-1.37.09-1.79s.05-.61.05-.61,0,.2,0,.61,0,1,0,1.8c0,.39,0,.83,0,1.32s-.12,1-.18,1.59a27.32,27.32,0,0,1-.68,3.93,36.1,36.1,0,0,1-3.95,10.17,37.95,37.95,0,0,1-25.16,18.43,35.85,35.85,0,0,1-4.79.65c-.82,0-1.64.14-2.47.14l-2.52-.08c-.42,0-.84,0-1.26-.06l-1.27-.18c-.85-.12-1.71-.2-2.56-.37a38.9,38.9,0,0,1-5.09-1.41,40.52,40.52,0,0,1-5-2.1c-.81-.43-1.59-.92-2.39-1.38a20.7,20.7,0,0,1-2.31-1.55,43.59,43.59,0,0,1-4.36-3.6l-2-2.1-.49-.53-.45-.57-.88-1.15-.89-1.16-.79-1.24-.78-1.25-.39-.62-.33-.66L582,272.43l-1.08-2.8a37.81,37.81,0,0,1-.38-24l1-2.84,1.24-2.7.31-.67.37-.63.75-1.28.74-1.26.85-1.18.85-1.18.42-.59.48-.54,1.89-2.16a43.81,43.81,0,0,1,4.24-3.74,18.66,18.66,0,0,1,2.26-1.62c.79-.49,1.55-1,2.34-1.46a38.66,38.66,0,0,1,4.91-2.26,37.56,37.56,0,0,1,5-1.57c.85-.2,1.7-.31,2.55-.46l1.26-.21c.42-.07.85-.07,1.27-.11l2.51-.16c.83,0,1.65,0,2.47.06a34.38,34.38,0,0,1,4.8.5,37.83,37.83,0,0,1,25.75,17.6,35.88,35.88,0,0,1,4.27,10,27.08,27.08,0,0,1,.81,3.91c.08.57.19,1.09.24,1.58s.05.92.07,1.32c0,.78.07,1.37.09,1.8S654.34,256.46,654.34,256.46Z" style="fill: rgb(38, 50, 56); transform-origin: 616.555px 257.045px;" id="elfzyru26xzaj" class="animable"></path><path d="M620.68,297.92a43,43,0,0,1-44-42.85l23-.37c.19,11.66,9.07,19,20.68,18.82Z" style="fill: #DC2626; transform-origin: 598.68px 276.316px;" id="el51ucckj0t3w" class="animable"></path><path d="M620.68,297.92a2.86,2.86,0,0,1,0-.45l0-1.29c0-1.15-.07-2.8-.13-4.89-.09-4.24-.22-10.32-.39-17.77l.2.19a25.46,25.46,0,0,1-6.91-.84,19.85,19.85,0,0,1-6.86-3.34,17.79,17.79,0,0,1-5.19-6.34,20,20,0,0,1-2-8.49l.26.25-17.8.29-5.19.09.26-.27a48.32,48.32,0,0,0,2.34,13.6c.39,1,.78,2.07,1.16,3.1s1,2,1.41,2.92a24,24,0,0,0,1.57,2.76,25.55,25.55,0,0,0,1.7,2.58l1.83,2.41c.64.75,1.33,1.45,2,2.16l1,1.05,1.06.94,2.07,1.83a44.86,44.86,0,0,0,8.52,5.26l2,.94c.68.26,1.35.48,2,.71l1.9.66c.62.2,1.24.31,1.83.46l1.7.42.81.19.79.12,2.81.4a20,20,0,0,0,2.24.18l1.65.08,1,.06.37,0h-1.34l-1.68,0a16,16,0,0,1-2.29-.13l-2.83-.35c-.26,0-.53-.06-.79-.11l-.82-.19-1.72-.39c-.59-.15-1.22-.26-1.85-.45l-1.91-.65c-.66-.23-1.34-.44-2-.7l-2.06-.93a43.83,43.83,0,0,1-8.63-5.26l-2.1-1.83-1.08-.94-1-1.06c-.66-.72-1.36-1.42-2-2.18l-1.86-2.42a26.22,26.22,0,0,1-1.73-2.61,23,23,0,0,1-1.59-2.78c-.47-1-1-2-1.43-3s-.79-2.08-1.18-3.13a48.27,48.27,0,0,1-2.39-13.75v-.26h.27l5.18-.09,17.8-.28h.25v.25a19.69,19.69,0,0,0,1.89,8.29,17.51,17.51,0,0,0,5,6.18,19.24,19.24,0,0,0,6.69,3.29,25,25,0,0,0,6.79.87h.2v.2c.08,7.5.14,13.61.18,17.88,0,2.08,0,3.71,0,4.85v1.26C620.69,297.79,620.68,297.93,620.68,297.92Z" style="fill: rgb(38, 50, 56); transform-origin: 598.55px 276.16px;" id="elcc43s0vhpz" class="animable"></path></g><g id="freepik--char-5--inject-4" class="animable" style="transform-origin: 540.81px 113.785px;"><rect x="441.13" y="39.44" width="199.25" height="148.94" style="fill: rgb(255, 255, 255); transform-origin: 540.755px 113.91px;" id="elc8o35zcn2vd" class="animable"></rect><rect x="441.13" y="39.44" width="199.25" height="18.41" style="fill: rgb(224, 224, 224); transform-origin: 540.755px 48.645px;" id="eld6odisibnt" class="animable"></rect><circle cx="452.04" cy="48.64" r="2.65" style="fill: rgb(255, 255, 255); transform-origin: 452.04px 48.64px;" id="el74xo7onroup" class="animable"></circle><circle cx="460.99" cy="48.64" r="2.65" style="fill: rgb(255, 255, 255); transform-origin: 460.99px 48.64px;" id="elhtjvdznh3sq" class="animable"></circle><circle cx="469.93" cy="48.64" r="2.65" style="fill: rgb(255, 255, 255); transform-origin: 469.93px 48.64px;" id="eli6m6ksc8er" class="animable"></circle><path d="M640.38,188.38s0-.93,0-2.72,0-4.45,0-7.91c0-6.93,0-17.1-.05-30.09,0-25.95-.07-63.16-.11-108.22l.21.21-199.23.05h0l.26-.26c0,53.52,0,104.23,0,148.94l-.24-.24,143.83.12,40.84.06,10.83,0,2.8,0h0l-2.76,0-10.79,0-40.79.07-144,.11h-.23v-.23c0-44.71,0-95.42,0-148.94v-.26h.28l199.23,0h.21v.22c0,45.11-.08,82.37-.11,108.35,0,13,0,23.12-.05,30,0,3.45,0,6.09,0,7.87S640.38,188.38,640.38,188.38Z" style="fill: rgb(38, 50, 56); transform-origin: 540.81px 113.785px;" id="el1r2flpkfvn8" class="animable"></path><path d="M629.4,129.2c0,.14-39.65.26-88.55.26s-88.56-.12-88.56-.26,39.64-.26,88.56-.26S629.4,129.05,629.4,129.2Z" style="fill: rgb(224, 224, 224); transform-origin: 540.845px 129.2px;" id="elxv035cx4we" class="animable"></path><path d="M629.4,113.91c0,.14-39.65.26-88.55.26s-88.56-.12-88.56-.26,39.64-.26,88.56-.26S629.4,113.76,629.4,113.91Z" style="fill: rgb(224, 224, 224); transform-origin: 540.845px 113.91px;" id="ell8rbr5euur" class="animable"></path><path d="M629.4,98.62c0,.14-39.65.26-88.55.26s-88.56-.12-88.56-.26,39.64-.26,88.56-.26S629.4,98.47,629.4,98.62Z" style="fill: rgb(224, 224, 224); transform-origin: 540.845px 98.62px;" id="elo5zmujc8luc" class="animable"></path><path d="M629.4,83.33c0,.14-39.65.26-88.55.26s-88.56-.12-88.56-.26,39.64-.26,88.56-.26S629.4,83.18,629.4,83.33Z" style="fill: rgb(224, 224, 224); transform-origin: 540.845px 83.33px;" id="eleiis21cuxph" class="animable"></path><path d="M617,128.63c-3.45-8.33-5.82-17.43-8.47-26.06-2.3-7.51-2.52-11-4.49-17.37-3.12-10-11.36-11.1-17.36-8.39-5.34,2.42-7.64,8.69-9.41,14.34l-6.36,20.27a36,36,0,0,1-3.88,9.24c-1.85,2.79-4.66,5.11-7.94,5.54-5.42.71-10.27-3.82-12.59-8.83s-3-10.67-5-15.8-6.33-10-11.79-10.14c-6.73-.12-11.3,6.74-14.09,12.94a148.16,148.16,0,0,0-8.48,24.24,33,33,0,0,1-2.82,8.27c-1.44,2.53-3.82,4.7-6.69,5.05-3.69.45-7.12-2.18-9.26-5.26s-3.47-6.69-5.67-9.73-5.74-5.57-9.41-4.93c-3.29.58-5.64,3.46-7.59,6.21A145.54,145.54,0,0,0,452,151.9h183.2C626.8,149,620.41,137,617,128.63Z" style="fill: #DC2626; transform-origin: 543.6px 113.718px;" id="ell8k51svvpm" class="animable"></path><rect x="494.86" y="163.9" width="8.65" height="8.65" style="fill: #DC2626; transform-origin: 499.185px 168.225px;" id="eltaictyuncx" class="animable"></rect><path d="M557.62,168.22H512.5a1,1,0,0,1-1-1h0a1,1,0,0,1,1-1h45.12a1,1,0,0,1,1,1h0A1,1,0,0,1,557.62,168.22Z" style="fill: rgb(38, 50, 56); transform-origin: 535.06px 167.22px;" id="elcdfjb9oq8v" class="animable"></path><path d="M627.29,151.9l-.66,0-1.93,0-7.44.05-27.36.08-90.25.08-47.61,0h-.24v-.24c0-23.47.07-43.48.09-57.64,0-7.05.05-12.65.07-16.51,0-1.9,0-3.37,0-4.39,0-.48,0-.85,0-1.13s0-.38,0-.38,0,.13,0,.38,0,.65,0,1.13c0,1,0,2.49,0,4.39,0,3.86,0,9.46.07,16.51,0,14.16.05,34.17.09,57.64l-.24-.24,47.61,0,90.25.08,27.36.08,7.44,0,1.93,0C627.07,151.88,627.29,151.9,627.29,151.9Z" style="fill: rgb(38, 50, 56); transform-origin: 539.545px 111.965px;" id="elx1mqeiybtbc" class="animable"></path><g id="el498kbie20xa"><g style="opacity: 0.3; transform-origin: 576.585px 121.91px;" class="animable" id="el7sne4emo769"><polygon points="605.78 91.92 540.76 151.9 573.27 151.9 612.41 115.66 605.78 91.92" style="fill: rgb(255, 255, 255); transform-origin: 576.585px 121.91px;" id="elfr9lhrdri5" class="animable"></polygon></g></g><g id="elekthjtph838"><g style="opacity: 0.3; transform-origin: 526.47px 133.79px;" class="animable" id="elb0m892mbj7j"><polyline points="548.5 120.76 512.73 151.9 503.51 151.9 545.75 115.68 549.43 121.91" style="fill: rgb(255, 255, 255); transform-origin: 526.47px 133.79px;" id="eln2f8ldf8rsh" class="animable"></polyline></g></g><path d="M452,151.9a115.46,115.46,0,0,1,6-12,136.56,136.56,0,0,1,8.5-13.22,16.87,16.87,0,0,1,3.35-3.41,7.57,7.57,0,0,1,4.82-1.55,9.24,9.24,0,0,1,5,1.95,15.53,15.53,0,0,1,3.79,4.22c2.11,3.24,3.46,7.17,6.26,10.28a11.12,11.12,0,0,0,5.25,3.35,7,7,0,0,0,3.18,0,7.9,7.9,0,0,0,2.93-1.42,12.43,12.43,0,0,0,3.9-5.46,58,58,0,0,0,2-6.82,147.89,147.89,0,0,1,4.46-14.23q1.32-3.58,2.87-7.19a51.19,51.19,0,0,1,3.56-7.1,20.86,20.86,0,0,1,5.39-6.09,11.15,11.15,0,0,1,3.75-1.81,10,10,0,0,1,4.22-.12,12.58,12.58,0,0,1,7.07,4.52,22.43,22.43,0,0,1,4,7.55c.92,2.74,1.55,5.56,2.35,8.34a28,28,0,0,0,3.35,8,14.63,14.63,0,0,0,6.4,5.58,8.86,8.86,0,0,0,8.07-.66,14.87,14.87,0,0,0,5.42-6.25,53.48,53.48,0,0,0,2.87-7.82q2.5-7.94,4.9-15.58c.81-2.54,1.54-5.08,2.45-7.54a26.52,26.52,0,0,1,3.56-6.92,13.48,13.48,0,0,1,2.71-2.73,12.81,12.81,0,0,1,3.39-1.74,15,15,0,0,1,3.68-.74,13.46,13.46,0,0,1,3.69.31,11.35,11.35,0,0,1,6,3.85,17.91,17.91,0,0,1,3.12,6.21c1.34,4.35,2.07,8.69,3.15,12.74.52,2,1.13,4,1.71,5.93s1.13,3.83,1.68,5.68a176.19,176.19,0,0,0,6.66,19.67,67.62,67.62,0,0,0,7.59,13.68,28.2,28.2,0,0,0,7,6.93,17,17,0,0,0,2.28,1.2l.8.36-.82-.31a15.79,15.79,0,0,1-2.31-1.16,27.54,27.54,0,0,1-7.1-6.9,66.57,66.57,0,0,1-7.69-13.69,171.55,171.55,0,0,1-6.75-19.68c-.56-1.85-1.12-3.74-1.7-5.67s-1.2-3.9-1.73-5.94c-1.09-4.07-1.83-8.39-3.18-12.71a17.34,17.34,0,0,0-3-6,10.89,10.89,0,0,0-5.79-3.7,13.6,13.6,0,0,0-3.55-.29,14.18,14.18,0,0,0-3.56.73,11.8,11.8,0,0,0-5.87,4.31,26.15,26.15,0,0,0-3.48,6.8c-.89,2.44-1.63,5-2.44,7.52q-2.38,7.64-4.88,15.58a53.24,53.24,0,0,1-2.9,7.9,15.26,15.26,0,0,1-5.62,6.46,9.27,9.27,0,0,1-8.52.7,15.05,15.05,0,0,1-6.64-5.77,28.64,28.64,0,0,1-3.42-8.12c-.8-2.8-1.44-5.61-2.34-8.31A22.14,22.14,0,0,0,538,96.21a12.09,12.09,0,0,0-6.78-4.35,9.58,9.58,0,0,0-4,.12,10.64,10.64,0,0,0-3.59,1.72,20.75,20.75,0,0,0-5.26,5.94,51.33,51.33,0,0,0-3.53,7q-1.54,3.6-2.87,7.17c-1.77,4.77-3.25,9.51-4.47,14.18a55.86,55.86,0,0,1-2,6.86,12.81,12.81,0,0,1-4,5.64,7.92,7.92,0,0,1-3.09,1.49,7.28,7.28,0,0,1-3.38,0,11.46,11.46,0,0,1-5.44-3.48c-2.87-3.21-4.2-7.15-6.28-10.35a15.18,15.18,0,0,0-3.69-4.14,8.91,8.91,0,0,0-4.82-1.9,7.29,7.29,0,0,0-4.62,1.47,16.82,16.82,0,0,0-3.3,3.34A141.2,141.2,0,0,0,458.23,140c-2.15,3.73-3.66,6.72-4.67,8.75l-1.13,2.32C452.18,151.64,452,151.9,452,151.9Z" style="fill: rgb(38, 50, 56); transform-origin: 543.565px 113.585px;" id="elbqgatoel5s8" class="animable"></path></g><g id="freepik--chart-4--inject-4" class="animable" style="transform-origin: 284.465px 298.2px;"><rect x="194.81" y="244.34" width="179.23" height="107.73" style="fill: rgb(255, 255, 255); transform-origin: 284.425px 298.205px;" id="el7z25kddst3e" class="animable"></rect><rect x="194.81" y="244.34" width="179.23" height="16.56" style="fill: rgb(224, 224, 224); transform-origin: 284.425px 252.62px;" id="elhkg1vrd8eyl" class="animable"></rect><path d="M207,252.62a2.39,2.39,0,1,1-2.39-2.38A2.39,2.39,0,0,1,207,252.62Z" style="fill: rgb(255, 255, 255); transform-origin: 204.61px 252.63px;" id="el5xbc3esd6ne" class="animable"></path><path d="M215.05,252.62a2.39,2.39,0,1,1-2.38-2.38A2.38,2.38,0,0,1,215.05,252.62Z" style="fill: rgb(255, 255, 255); transform-origin: 212.66px 252.63px;" id="elcwtvv5wo7mr" class="animable"></path><path d="M223.1,252.62a2.39,2.39,0,1,1-2.39-2.38A2.39,2.39,0,0,1,223.1,252.62Z" style="fill: rgb(255, 255, 255); transform-origin: 220.71px 252.63px;" id="elyefxyys34w" class="animable"></path><path d="M374,352.08s0-.67,0-1.95,0-3.17,0-5.64c0-5,0-12.24-.06-21.58,0-18.67-.06-45.58-.1-78.57l.2.21-179.22,0h0l.26-.26c0,38.17,0,74.59,0,107.74l-.24-.25,129,.12,37,.07,9.85,0h2.55l.87,0h-3.36l-9.8,0L324,352.2l-129.14.12h-.24v-.24c0-33.15,0-69.57,0-107.74v-.26h.27l179.22.06h.2v.2c0,33-.08,60-.1,78.69,0,9.33,0,16.59-.06,21.54,0,2.45,0,4.33,0,5.61S374,352.08,374,352.08Z" style="fill: rgb(38, 50, 56); transform-origin: 284.465px 298.2px;" id="elc1u5y61zr8h" class="animable"></path><rect x="214.44" y="279.05" width="7.62" height="55.78" style="fill: #DC2626; transform-origin: 218.25px 306.94px;" id="elkhqtmcqtxrs" class="animable"></rect><rect x="229.15" y="297.99" width="7.62" height="36.83" style="fill: #DC2626; transform-origin: 232.96px 316.405px;" id="elqzi6dfljan" class="animable"></rect><rect x="243.85" y="285.98" width="7.62" height="49.13" style="fill: #DC2626; transform-origin: 247.66px 310.545px;" id="els9t0xqf4l29" class="animable"></rect><rect x="258.56" y="281.2" width="7.62" height="53.63" style="fill: #DC2626; transform-origin: 262.37px 308.015px;" id="el7mwypahyw1f" class="animable"></rect><rect x="273.26" y="299.12" width="7.62" height="35.7" style="fill: #DC2626; transform-origin: 277.07px 316.97px;" id="el0x1fafvg2uyp" class="animable"></rect><rect x="287.97" y="306.13" width="7.62" height="28.7" style="fill: #DC2626; transform-origin: 291.78px 320.48px;" id="elallbhb2996r" class="animable"></rect><rect x="302.67" y="284.77" width="7.62" height="50.05" style="fill: #DC2626; transform-origin: 306.48px 309.795px;" id="ele64sialxtl4" class="animable"></rect><rect x="317.38" y="293.8" width="7.62" height="41.03" style="fill: #DC2626; transform-origin: 321.19px 314.315px;" id="elp7bos8ugl8t" class="animable"></rect><rect x="332.08" y="286.58" width="7.62" height="48.24" style="fill: #DC2626; transform-origin: 335.89px 310.7px;" id="el9skthkiu78w" class="animable"></rect><rect x="346.79" y="301.96" width="7.62" height="32.87" style="fill: #DC2626; transform-origin: 350.6px 318.395px;" id="eloy5gb5erac" class="animable"></rect><g id="el62v0ovv6mql"><g style="opacity: 0.3; transform-origin: 232.96px 316.405px;" class="animable" id="elvfzbkuo0efc"><rect x="229.15" y="297.99" width="7.62" height="36.83" style="fill: rgb(255, 255, 255); transform-origin: 232.96px 316.405px;" id="eltszkh31wtga" class="animable"></rect></g></g><g id="elpfixb4wr1i"><g style="opacity: 0.3; transform-origin: 262.37px 308.015px;" class="animable" id="elqbk6wrlyhxb"><rect x="258.56" y="281.2" width="7.62" height="53.63" style="fill: rgb(255, 255, 255); transform-origin: 262.37px 308.015px;" id="el0jt0fgp0gdtb" class="animable"></rect></g></g><g id="eliu3cmlb6du"><g style="opacity: 0.3; transform-origin: 291.78px 320.48px;" class="animable" id="elkyqv80v2dij"><rect x="287.97" y="306.13" width="7.62" height="28.7" style="fill: rgb(255, 255, 255); transform-origin: 291.78px 320.48px;" id="elw0bk9cungre" class="animable"></rect></g></g><g id="ellxnggcpq1rm"><g style="opacity: 0.3; transform-origin: 321.19px 314.315px;" class="animable" id="elc9hun3j1b5s"><rect x="317.38" y="293.8" width="7.62" height="41.03" style="fill: rgb(255, 255, 255); transform-origin: 321.19px 314.315px;" id="elp18b424k4kf" class="animable"></rect></g></g><g id="el2jf3odsq5de"><g style="opacity: 0.3; transform-origin: 350.6px 318.395px;" class="animable" id="elf7x5nbgz3oq"><rect x="346.79" y="301.96" width="7.62" height="32.87" style="fill: rgb(255, 255, 255); transform-origin: 350.6px 318.395px;" id="eldonvovlvl8" class="animable"></rect></g></g><path d="M365.35,334.83c0,.14-35.45.26-79.17.26S207,335,207,334.83s35.44-.27,79.18-.27S365.35,334.68,365.35,334.83Z" style="fill: rgb(38, 50, 56); transform-origin: 286.175px 334.825px;" id="elhmjlcbmrkn" class="animable"></path></g><g id="freepik--chart-1--inject-4" class="animable" style="transform-origin: 105.75px 213.305px;"><rect x="57.97" y="165.57" width="95.51" height="95.51" style="fill: rgb(255, 255, 255); transform-origin: 105.725px 213.325px;" id="elo44kwqtxwok" class="animable"></rect><path d="M107.77,220.76l26.33.36c-.2,14-12,25.48-26.33,25.48h-.16Z" style="fill: rgb(69, 90, 100); transform-origin: 120.855px 233.68px;" id="elkld6buk8bdg" class="animable"></path><path d="M103.6,217l-.37,25.84c-14.31-.2-26-11.8-26-25.84s11.89-25.84,26.34-25.84,26.34,11.67,26.34,25.84Z" style="fill: #DC2626; transform-origin: 103.57px 217px;" id="eld6e23wzypt9" class="animable"></path><rect x="57.97" y="165.57" width="95.42" height="18.79" style="fill: rgb(224, 224, 224); transform-origin: 105.68px 174.965px;" id="elu18vpjkrii" class="animable"></rect><circle cx="69.1" cy="174.96" r="2.71" style="fill: rgb(255, 255, 255); transform-origin: 69.1px 174.96px;" id="elzfpd82lkpa" class="animable"></circle><circle cx="78.23" cy="174.96" r="2.71" style="fill: rgb(255, 255, 255); transform-origin: 78.23px 174.96px;" id="elg9o8rodge55" class="animable"></circle><path d="M90.07,175a2.71,2.71,0,1,1-2.71-2.71A2.71,2.71,0,0,1,90.07,175Z" style="fill: rgb(255, 255, 255); transform-origin: 87.36px 175px;" id="elq4wez9m76qm" class="animable"></path><path d="M153.48,261.08s0-.16,0-.46,0-.75,0-1.32c0-1.18,0-2.9,0-5.14,0-4.49,0-11.07-.06-19.43,0-16.71-.07-40.55-.12-69.16l.23.22-95.5,0h0l.26-.26c0,35,0,67.75,0,95.51l-.23-.23,69.17.11,19.43.06,5.13,0H153l.46,0h-1.73l-5.09,0-19.38.06L58,261.3h-.22v-.22c0-27.76,0-60.54,0-95.51v-.26H58l95.5,0h.22v.23c0,28.66-.08,52.56-.11,69.31,0,8.33-.05,14.89-.06,19.37q0,3.35,0,5.1c0,.56,0,1,0,1.29S153.48,261.08,153.48,261.08Z" style="fill: rgb(38, 50, 56); transform-origin: 105.75px 213.305px;" id="el7fm6s4pb4fn" class="animable"></path></g><g id="freepik--chart-2--inject-4" class="animable" style="transform-origin: 256.84px 128.29px;"><rect x="126.54" y="34.39" width="260.41" height="187.93" style="fill: rgb(255, 255, 255); transform-origin: 256.745px 128.355px;" id="elpemfkq1y1co" class="animable"></rect><rect x="259.75" y="76.99" width="98.87" height="43.33" rx="18.58" style="fill: rgb(235, 235, 235); transform-origin: 309.185px 98.655px;" id="els3c2jxe7m1k" class="animable"></rect><path d="M145.2,125.37a40.29,40.29,0,1,1,40.93,39.82A40.43,40.43,0,0,1,145.2,125.37Zm59.54-1a19.26,19.26,0,1,0-19,19.66A19.33,19.33,0,0,0,204.74,124.41Z" style="fill: rgb(245, 245, 245); transform-origin: 185.487px 124.904px;" id="el49vft0sqgro" class="animable"></path><path d="M145.2,125.37a40.43,40.43,0,0,1,39.63-41.12l.34,21.12a19.35,19.35,0,0,0,.62,38.7l.34,21.12A40.42,40.42,0,0,1,145.2,125.37Z" style="fill: rgb(69, 90, 100); transform-origin: 165.662px 124.722px;" id="elbui7y30eo9t" class="animable"></path><path d="M145.2,125.37a40.29,40.29,0,1,1,40.93,39.82A40.43,40.43,0,0,1,145.2,125.37Zm59.54-1a19.26,19.26,0,1,0-19,19.66A19.33,19.33,0,0,0,204.74,124.41Z" style="fill: none; transform-origin: 185.487px 124.904px;" id="elc29d70w9o2o" class="animable"></path><path d="M204.74,124.41a1.43,1.43,0,0,1,0,.31v.92a9.42,9.42,0,0,1-.1,1.49,13.51,13.51,0,0,1-.34,2,18.16,18.16,0,0,1-2,5.23,19,19,0,0,1-4.8,5.65,19.2,19.2,0,0,1-18.38,3.19,21.9,21.9,0,0,1-2.57-1.08,21.17,21.17,0,0,1-2.42-1.51,22.89,22.89,0,0,1-2.24-1.85,23.18,23.18,0,0,1-1.95-2.24,19,19,0,0,1-2.88-5.35A21.08,21.08,0,0,1,166,125a20.61,20.61,0,0,1,.91-6.19,18.83,18.83,0,0,1,2.7-5.44,18.3,18.3,0,0,1,4.06-4.23A20.34,20.34,0,0,1,176,107.6a19.78,19.78,0,0,1,2.53-1.16A19.34,19.34,0,0,1,202,114.52a18.24,18.24,0,0,1,2.17,5.16,14.22,14.22,0,0,1,.4,2,9,9,0,0,1,.15,1.48c0,.39,0,.69,0,.92a1.3,1.3,0,0,1,0,.32,1.16,1.16,0,0,1-.05-.31c0-.24-.05-.54-.09-.92a9.55,9.55,0,0,0-.19-1.47,14.65,14.65,0,0,0-.45-2,18.13,18.13,0,0,0-2.22-5.06,19.36,19.36,0,0,0-5-5.35,18.91,18.91,0,0,0-18.09-2.44,17.9,17.9,0,0,0-4.77,2.7A17.56,17.56,0,0,0,170,113.7a18.63,18.63,0,0,0-2.63,5.3,20.23,20.23,0,0,0-.88,6,19.16,19.16,0,0,0,3.87,11.2,17.59,17.59,0,0,0,4.08,4,19.2,19.2,0,0,0,2.35,1.47,20.14,20.14,0,0,0,2.5,1.06,18.91,18.91,0,0,0,18-3,19.28,19.28,0,0,0,4.78-5.51,18.46,18.46,0,0,0,2.06-5.13,12.69,12.69,0,0,0,.38-2,9,9,0,0,0,.15-1.48c0-.38.05-.68.06-.92A1.44,1.44,0,0,1,204.74,124.41Z" style="fill: rgb(38, 50, 56); transform-origin: 185.374px 124.717px;" id="elwl0nm3p40q" class="animable"></path><path d="M145.2,125.37s0,.22.07.65.08,1.09.15,1.91c0,.43.07.9.11,1.41s.18,1.08.28,1.69.22,1.26.34,2a22.09,22.09,0,0,0,.56,2.19,38.5,38.5,0,0,0,4.63,10.64,40.14,40.14,0,0,0,10.37,11.27l1.75,1.27c.61.4,1.26.75,1.9,1.14s1.28.79,2,1.11l2.1,1,1.06.49,1.12.39,2.27.79c.77.25,1.58.4,2.38.6a19.8,19.8,0,0,0,2.43.52,37,37,0,0,0,5.09.51c.86,0,1.74.09,2.62.06l2.65-.18c.45,0,.9,0,1.34-.11l1.33-.23c.89-.17,1.8-.28,2.7-.49a43.53,43.53,0,0,0,10.5-4.07c.84-.48,1.64-1,2.47-1.54a20.93,20.93,0,0,0,2.39-1.72,43.81,43.81,0,0,0,4.47-4l2-2.28.5-.57.45-.62.89-1.25.9-1.25.79-1.34.78-1.34.39-.67.33-.71,1.31-2.85,1-3a39.94,39.94,0,0,0-.4-25.32l-1.14-3c-.46-.94-.93-1.88-1.4-2.81l-.35-.7-.41-.66-.83-1.32-.82-1.31-.94-1.22-.94-1.22-.46-.6-.53-.56c-.69-.75-1.38-1.48-2.07-2.22a43.33,43.33,0,0,0-4.59-3.81,19.74,19.74,0,0,0-2.45-1.64c-.84-.49-1.66-1-2.51-1.47a43.75,43.75,0,0,0-5.27-2.23,41.63,41.63,0,0,0-5.37-1.49c-.9-.18-1.81-.27-2.7-.41l-1.35-.18c-.44-.06-.89,0-1.34-.07l-2.66-.09c-.88,0-1.75.1-2.61.14a36.6,36.6,0,0,0-5.07.68,19.86,19.86,0,0,0-2.42.59c-.79.23-1.59.41-2.35.68l-2.24.87-1.11.42-1.05.53-2.07,1c-.68.33-1.29.79-1.93,1.17s-1.27.78-1.87,1.2l-1.71,1.32a40.15,40.15,0,0,0-10,11.6,38.44,38.44,0,0,0-4.28,10.79,20.71,20.71,0,0,0-.49,2.21c-.1.7-.2,1.35-.28,2s-.19,1.17-.23,1.68,0,1-.06,1.42c0,.83-.07,1.46-.09,1.91s-.05.66-.05.66,0-.22,0-.66,0-1.09,0-1.92c0-.42,0-.9,0-1.42s.13-1.08.2-1.69.17-1.28.26-2a20.75,20.75,0,0,1,.47-2.23,38.75,38.75,0,0,1,4.22-10.88,40.43,40.43,0,0,1,10-11.75l1.72-1.34c.61-.43,1.25-.81,1.88-1.22s1.26-.85,1.95-1.19l2.09-1,1-.54,1.12-.43,2.27-.88c.76-.28,1.57-.46,2.37-.7a21.92,21.92,0,0,1,2.45-.61,37.12,37.12,0,0,1,5.12-.69c.87,0,1.75-.15,2.64-.16l2.69.09c.45,0,.9,0,1.36.07l1.35.18c.91.14,1.83.23,2.74.4a43.19,43.19,0,0,1,5.44,1.51A41.06,41.06,0,0,1,204,88.53c.86.46,1.7,1,2.55,1.48a21.35,21.35,0,0,1,2.48,1.65,45.63,45.63,0,0,1,4.66,3.86l2.09,2.24.53.57.48.61.94,1.23,1,1.24.83,1.32.84,1.34.42.67.35.7,1.43,2.85c.38,1,.76,2,1.15,3a40.37,40.37,0,0,1,.4,25.64l-1,3c-.44,1-.89,1.93-1.33,2.89l-.33.72-.4.68-.79,1.36-.8,1.35-.91,1.26-.91,1.26-.45.63-.51.58c-.68.78-1.35,1.55-2,2.31a45,45,0,0,1-4.53,4,21.71,21.71,0,0,1-2.42,1.73c-.84.52-1.65,1.07-2.5,1.56a42,42,0,0,1-5.25,2.42,43,43,0,0,1-5.39,1.68c-.9.21-1.82.32-2.72.49l-1.35.23c-.45.07-.91.07-1.36.11l-2.68.17c-.89,0-1.77,0-2.65-.06a39.24,39.24,0,0,1-5.14-.53,21.91,21.91,0,0,1-2.46-.53c-.81-.21-1.62-.36-2.4-.62l-2.29-.8-1.13-.4-1.08-.5-2.11-1c-.7-.32-1.33-.76-2-1.13s-1.3-.75-1.92-1.15l-1.76-1.29A40.24,40.24,0,0,1,151.09,146a38.25,38.25,0,0,1-4.57-10.74A19.12,19.12,0,0,1,146,133l-.33-2c-.09-.61-.2-1.17-.25-1.69s-.06-1-.08-1.42c0-.83-.08-1.47-.11-1.92S145.2,125.37,145.2,125.37Z" style="fill: rgb(38, 50, 56); transform-origin: 185.612px 124.69px;" id="eltse2mc7n2d8" class="animable"></path><path d="M181.21,81c26-.42,46.72,19.75,47.14,45.86l-24.6.39c-.2-12.48-9.69-20.34-22.12-20.14Z" style="fill: #DC2626; transform-origin: 204.78px 104.122px;" id="el81ujafcqoac" class="animable"></path><path d="M181.21,81s0,.17,0,.49,0,.79,0,1.37c0,1.23.07,3,.13,5.24.1,4.53.23,11,.41,19l-.2-.19a27.09,27.09,0,0,1,7.39.91,21,21,0,0,1,7.33,3.56,19.21,19.21,0,0,1,5.56,6.78,21.5,21.5,0,0,1,2.1,9.08l-.26-.25,19-.31,5.55-.09-.25.26a51.58,51.58,0,0,0-2.51-14.55L224.34,109c-.47-1.07-1-2.1-1.51-3.13a25,25,0,0,0-1.68-3,28.16,28.16,0,0,0-1.82-2.77c-.66-.87-1.32-1.72-2-2.57s-1.43-1.55-2.12-2.32l-1.05-1.12-1.13-1-2.22-2a47.41,47.41,0,0,0-9.12-5.63l-2.18-1c-.73-.29-1.45-.52-2.15-.77l-2-.7c-.66-.21-1.32-.34-2-.5l-1.83-.44-.86-.21-.85-.12-3-.43a20.68,20.68,0,0,0-2.4-.19l-1.77-.09L181.6,81l-.39,0h1.44l1.79,0a16.84,16.84,0,0,1,2.45.14l3,.38.85.12.87.19,1.85.43c.63.16,1.3.27,2,.48l2,.69c.7.25,1.43.47,2.16.75l2.21,1a47.64,47.64,0,0,1,9.24,5.62c.73.65,1.48,1.3,2.24,2l1.15,1,1.06,1.13c.7.77,1.45,1.52,2.15,2.34l2,2.59a27.53,27.53,0,0,1,1.85,2.79,24.18,24.18,0,0,1,1.7,3c.5,1,1.06,2.07,1.53,3.16l1.27,3.35a51.87,51.87,0,0,1,2.55,14.7v.26h-.26l-5.55.09-19,.3h-.26v-.25a20.91,20.91,0,0,0-2-8.87,18.66,18.66,0,0,0-5.4-6.63,20.7,20.7,0,0,0-7.16-3.52,27,27,0,0,0-7.27-.93h-.2v-.19c-.09-8-.16-14.57-.2-19.14,0-2.23,0-4,0-5.19V81.45C181.2,81.15,181.21,81,181.21,81Z" style="fill: rgb(38, 50, 56); transform-origin: 204.89px 104.254px;" id="el96dbn8paz5" class="animable"></path><rect x="126.54" y="34.39" width="260.41" height="25.1" style="fill: rgb(224, 224, 224); transform-origin: 256.745px 46.94px;" id="elajs066xwe0d" class="animable"></rect><path d="M347,91.53H273.8A1.56,1.56,0,0,1,272.24,90h0a1.56,1.56,0,0,1,1.56-1.56H347A1.56,1.56,0,0,1,348.55,90h0A1.56,1.56,0,0,1,347,91.53Z" style="fill: rgb(38, 50, 56); transform-origin: 310.395px 89.985px;" id="eltbwim4oo8lg" class="animable"></path><path d="M347,99.83H273.8a1.56,1.56,0,0,1-1.56-1.56h0a1.56,1.56,0,0,1,1.56-1.57H347a1.56,1.56,0,0,1,1.56,1.57h0A1.56,1.56,0,0,1,347,99.83Z" style="fill: rgb(38, 50, 56); transform-origin: 310.4px 98.265px;" id="elmj3418xrpco" class="animable"></path><path d="M307.06,108.13H273.8a1.56,1.56,0,0,1-1.56-1.56h0A1.56,1.56,0,0,1,273.8,105h33.26a1.56,1.56,0,0,1,1.57,1.56h0A1.56,1.56,0,0,1,307.06,108.13Z" style="fill: rgb(38, 50, 56); transform-origin: 290.435px 106.565px;" id="el920az27fpwa" class="animable"></path><rect x="259.75" y="130" width="98.87" height="43.33" rx="18.58" style="fill: rgb(235, 235, 235); transform-origin: 309.185px 151.665px;" id="elurjjkm5a1n" class="animable"></rect><path d="M349,200.35H267.27a8.57,8.57,0,0,1-8.56-8.57h0a8.56,8.56,0,0,1,8.56-8.56H349a8.57,8.57,0,0,1,8.57,8.56h0A8.57,8.57,0,0,1,349,200.35Z" style="fill: rgb(235, 235, 235); transform-origin: 308.14px 191.785px;" id="el4h65c0e661t" class="animable"></path><path d="M346.51,144.92H273.32a1.56,1.56,0,0,1-1.56-1.56h0a1.56,1.56,0,0,1,1.56-1.56h73.19a1.56,1.56,0,0,1,1.56,1.56h0A1.56,1.56,0,0,1,346.51,144.92Z" style="fill: rgb(38, 50, 56); transform-origin: 309.915px 143.36px;" id="elzcd2whjttqm" class="animable"></path><path d="M343.39,193.53H270.2a1.56,1.56,0,0,1-1.56-1.56h0a1.56,1.56,0,0,1,1.56-1.56h73.19A1.56,1.56,0,0,1,345,192h0A1.56,1.56,0,0,1,343.39,193.53Z" style="fill: rgb(38, 50, 56); transform-origin: 306.82px 191.97px;" id="elb18pskkrjad" class="animable"></path><path d="M346.51,153.22H273.32a1.56,1.56,0,0,1-1.56-1.56h0a1.56,1.56,0,0,1,1.56-1.56h73.19a1.56,1.56,0,0,1,1.56,1.56h0A1.56,1.56,0,0,1,346.51,153.22Z" style="fill: rgb(38, 50, 56); transform-origin: 309.915px 151.66px;" id="el3h5whoryaa1" class="animable"></path><path d="M306.58,161.52H273.32a1.56,1.56,0,0,1-1.56-1.56h0a1.56,1.56,0,0,1,1.56-1.56h33.26a1.56,1.56,0,0,1,1.56,1.56h0A1.56,1.56,0,0,1,306.58,161.52Z" style="fill: rgb(38, 50, 56); transform-origin: 289.95px 159.96px;" id="el21irqjjhgai" class="animable"></path><path d="M254.64,86.25a7.58,7.58,0,0,1-1.37.1l-3.73.08c-3.15,0-7.51.08-12.31.08l-5.61,0,.18-.07c-2.45,2.42-4.56,4.48-6.07,5.93L224,94a3.35,3.35,0,0,1-.67.56,3.35,3.35,0,0,1,.56-.67l1.68-1.78c1.44-1.51,3.51-3.62,5.93-6.07l.07-.07h5.71c4.8,0,9.16,0,12.31.07l3.73.08A6.91,6.91,0,0,1,254.64,86.25Z" style="fill: rgb(38, 50, 56); transform-origin: 238.985px 90.265px;" id="elec6r0l9e09b" class="animable"></path><circle cx="253.56" cy="86.32" r="2.08" style="fill: rgb(38, 50, 56); transform-origin: 253.56px 86.32px;" id="elr1hgpd5mhh" class="animable"></circle><circle cx="253.56" cy="148.84" r="2.08" style="fill: rgb(38, 50, 56); transform-origin: 253.56px 148.84px;" id="el58zaxt3aqg3" class="animable"></circle><path d="M252.18,149.21a24.26,24.26,0,0,1-3.49.15c-2.16,0-5.14,0-8.43,0l-8.42-.08-2.56-.06a6.63,6.63,0,0,1-.93,0,14.06,14.06,0,0,1,3.48-.27c2.16-.06,5.14-.09,8.43-.07s6.27.06,8.43.12A22.17,22.17,0,0,1,252.18,149.21Z" style="fill: rgb(38, 50, 56); transform-origin: 240.265px 149.122px;" id="elfqclk3got98" class="animable"></path><rect x="158.23" y="194.91" width="6.82" height="6.82" style="fill: rgb(69, 90, 100); transform-origin: 161.64px 198.32px;" id="elg4j2mcibsb" class="animable"></rect><rect x="181.1" y="194.91" width="6.82" height="6.82" style="fill: rgb(224, 224, 224); transform-origin: 184.51px 198.32px;" id="elcmsatscvsys" class="animable"></rect><rect x="205.91" y="194.91" width="6.82" height="6.82" style="fill: #DC2626; transform-origin: 209.32px 198.32px;" id="elj3gr80lnvxn" class="animable"></rect><path d="M144.26,46.94a3.47,3.47,0,1,1-3.47-3.62A3.54,3.54,0,0,1,144.26,46.94Z" style="fill: rgb(255, 255, 255); transform-origin: 140.792px 46.79px;" id="el63xl2nuc4gp" class="animable"></path><path d="M156,46.94a3.47,3.47,0,1,1-3.47-3.62A3.54,3.54,0,0,1,156,46.94Z" style="fill: rgb(255, 255, 255); transform-origin: 152.532px 46.79px;" id="ele59oda9b8ft" class="animable"></path><path d="M167.64,46.94a3.47,3.47,0,1,1-3.46-3.62A3.54,3.54,0,0,1,167.64,46.94Z" style="fill: rgb(255, 255, 255); transform-origin: 164.172px 46.79px;" id="el5ybokak5k54" class="animable"></path><path d="M387,222.32c0-1.75-.09-73.94-.21-187.93l.21.21-260.39,0h0l.26-.26c0,67.36,0,131.24,0,187.93l-.23-.24,260.41.24-260.41.23h-.24v-.23c0-56.69,0-120.57,0-187.93v-.26h.28l260.39,0h.21v.21C387,148.38,387,220.57,387,222.32Z" style="fill: rgb(38, 50, 56); transform-origin: 256.84px 128.29px;" id="eloqusd45igx" class="animable"></path></g><g id="freepik--chart-3--inject-4" class="animable" style="transform-origin: 401.105px 227.51px;"><rect x="308.71" y="158.23" width="185.49" height="138.66" style="fill: rgb(255, 255, 255); transform-origin: 401.455px 227.56px;" id="elhccyfz6cbbr" class="animable"></rect><rect x="308.12" y="158.23" width="185.49" height="17.14" style="fill: rgb(224, 224, 224); transform-origin: 400.865px 166.8px;" id="elvu2aod54ar" class="animable"></rect><circle cx="318.28" cy="166.8" r="2.47" style="fill: rgb(255, 255, 255); transform-origin: 318.28px 166.8px;" id="eluxtoyolufbl" class="animable"></circle><circle cx="326.6" cy="166.8" r="2.47" style="fill: rgb(255, 255, 255); transform-origin: 326.6px 166.8px;" id="elkv3tuh2176h" class="animable"></circle><circle cx="334.93" cy="166.8" r="2.47" style="fill: rgb(255, 255, 255); transform-origin: 334.93px 166.8px;" id="elbkjui6tp538" class="animable"></circle><path d="M493.61,296.89s0-.87,0-2.54,0-4.14,0-7.37c0-6.45,0-15.92-.05-28,0-24.16-.07-58.8-.11-100.74l.21.21-185.47.05h0l.26-.26c0,49.83,0,97,0,138.66l-.24-.24,133.89.12,38,.06,10.08,0h2.6l.89,0h-3.43l-10,0-38,.06-134,.12h-.23v-.23c0-41.63,0-88.83,0-138.66V158h.28l185.47,0h.21v.22c0,42-.08,76.69-.11,100.88,0,12.07,0,21.52,0,28,0,3.21,0,5.66,0,7.32S493.61,296.89,493.61,296.89Z" style="fill: rgb(38, 50, 56); transform-origin: 400.99px 227.51px;" id="elkggzl8w7cm" class="animable"></path><path d="M483.39,241.79c0,.15-36.91.26-82.43.26s-82.45-.11-82.45-.26,36.9-.26,82.45-.26S483.39,241.65,483.39,241.79Z" style="fill: rgb(224, 224, 224); transform-origin: 400.95px 241.79px;" id="elfkh8lq1wcbt" class="animable"></path><path d="M483.39,227.56c0,.14-36.91.26-82.43.26s-82.45-.12-82.45-.26,36.9-.26,82.45-.26S483.39,227.41,483.39,227.56Z" style="fill: rgb(224, 224, 224); transform-origin: 400.95px 227.56px;" id="elb149f1tmou" class="animable"></path><path d="M483.39,213.32c0,.15-36.91.26-82.43.26s-82.45-.11-82.45-.26,36.9-.26,82.45-.26S483.39,213.18,483.39,213.32Z" style="fill: rgb(224, 224, 224); transform-origin: 400.95px 213.32px;" id="elkenk7cpzcx" class="animable"></path><path d="M483.39,199.09c0,.14-36.91.26-82.43.26s-82.45-.12-82.45-.26,36.9-.26,82.45-.26S483.39,198.94,483.39,199.09Z" style="fill: rgb(224, 224, 224); transform-origin: 400.95px 199.09px;" id="elm9jaofw6e3c" class="animable"></path><rect x="332.46" y="235.34" width="13.72" height="27.59" style="fill: #DC2626; transform-origin: 339.32px 249.135px;" id="elvmnc6jk38b" class="animable"></rect><rect x="381.7" y="235.34" width="13.72" height="27.59" style="fill: rgb(69, 90, 100); transform-origin: 388.56px 249.135px;" id="elrsqkcpr3zed" class="animable"></rect><rect x="456.38" y="244.74" width="13.72" height="18.18" style="fill: rgb(69, 90, 100); transform-origin: 463.24px 253.83px;" id="elbxi5i9fpepo" class="animable"></rect><rect x="430.93" y="222.27" width="13.72" height="40.65" style="fill: rgb(224, 224, 224); transform-origin: 437.79px 242.595px;" id="elemnw8flc06m" class="animable"></rect><rect x="405.76" y="206.45" width="13.72" height="56.48" style="fill: #DC2626; transform-origin: 412.62px 234.69px;" id="elghfmp3qmre" class="animable"></rect><rect x="356.1" y="222.27" width="13.72" height="40.65" style="fill: rgb(224, 224, 224); transform-origin: 362.96px 242.595px;" id="elh3e2m2jfrvp" class="animable"></rect><path d="M481.43,262.93l-.62,0-1.8,0-6.92,0-25.47.08-84,.08-44.32,0H318v-.24c0-21.85.08-40.48.1-53.66,0-6.57.05-11.78.07-15.37,0-1.77,0-3.14,0-4.09,0-.45,0-.79,0-1.05a2.63,2.63,0,0,1,0-.36s0,.13,0,.36l0,1.05c0,.95,0,2.32,0,4.09,0,3.59,0,8.8.07,15.37,0,13.18.06,31.81.1,53.66l-.24-.25H362.6l84,.07,25.47.08,6.92.05,1.8,0Z" style="fill: rgb(38, 50, 56); transform-origin: 399.715px 225.705px;" id="elvybg1f8oohc" class="animable"></path><rect x="347.11" y="276.92" width="6.03" height="6.03" style="fill: #DC2626; transform-origin: 350.125px 279.935px;" id="elyy63ktzca8r" class="animable"></rect><rect x="383.95" y="276.73" width="6.03" height="6.03" style="fill: rgb(224, 224, 224); transform-origin: 386.965px 279.745px;" id="el9mf3ugrwt4p" class="animable"></rect><rect x="423.8" y="276.92" width="6.03" height="6.03" style="fill: rgb(69, 90, 100); transform-origin: 426.815px 279.935px;" id="ela6e1r5ft6y" class="animable"></rect><path d="M373.1,279.74a63.68,63.68,0,0,1-8.21.26,63.68,63.68,0,0,1-8.21-.26,65.92,65.92,0,0,1,8.21-.26A65.92,65.92,0,0,1,373.1,279.74Z" style="fill: rgb(38, 50, 56); transform-origin: 364.89px 279.742px;" id="elm1o38pmy5if" class="animable"></path><path d="M409.66,279.74a63.68,63.68,0,0,1-8.21.26,63.68,63.68,0,0,1-8.21-.26,65.92,65.92,0,0,1,8.21-.26A65.92,65.92,0,0,1,409.66,279.74Z" style="fill: rgb(38, 50, 56); transform-origin: 401.45px 279.742px;" id="elujr45fvwwmq" class="animable"></path><path d="M448.58,279.74a129.6,129.6,0,0,1-16.41,0,129.6,129.6,0,0,1,16.41,0Z" style="fill: rgb(38, 50, 56); transform-origin: 440.375px 279.74px;" id="eli2qjr7d16hi" class="animable"></path></g><g id="freepik--user-icon--inject-4" class="animable" style="transform-origin: 436.53px 146.915px;"><rect x="404.48" y="114.9" width="64.09" height="64.09" style="fill: rgb(255, 255, 255); transform-origin: 436.525px 146.945px;" id="el0hwv1ya3tdt6" class="animable"></rect><path d="M468.57,179s0-.11,0-.31,0-.51,0-.89c0-.8,0-1.95,0-3.45,0-3,0-7.44-.06-13.05,0-11.22-.07-27.21-.12-46.39l.23.22-64.09,0h0l.26-.26c0,23.47,0,45.46,0,64.09l-.22-.22,46.39.11,13.05.06,3.45,0h.92l-.87,0L464,179l-13,.06-46.53.12h-.23V179c0-18.63,0-40.62,0-64.09v-.26h.26l64.09,0h.23v.23c0,19.24-.08,35.28-.11,46.53,0,5.59,0,10-.06,13,0,1.48,0,2.62,0,3.41,0,.37,0,.66,0,.87A2.62,2.62,0,0,1,468.57,179Z" style="fill: rgb(38, 50, 56); transform-origin: 436.53px 146.915px;" id="elygohmo8wa0n" class="animable"></path><path d="M440.17,147.05a10.33,10.33,0,0,0,6.16-9.56c0-5.71-4.29-10.35-9.65-10.38S427,131.69,427,137.4a10.33,10.33,0,0,0,6.18,9.65c-14.91,2.24-14.24,18.45-14.24,18.45l35.26.16S455,149.28,440.17,147.05Z" style="fill: #DC2626; transform-origin: 436.572px 146.385px;" id="el89auqemtto3" class="animable"></path></g><g id="freepik--Character--inject-4" class="animable" style="transform-origin: 507.239px 289.001px;"><path d="M573,115.25a2.56,2.56,0,0,0-1.71-.74,9.13,9.13,0,0,0-5.33,1,7.77,7.77,0,0,0,1.08-9.31,8.77,8.77,0,0,0-8.69-3.93,10.1,10.1,0,0,0-7.56,6,11.94,11.94,0,0,0,.43,9.8l5.56,1.46a15.64,15.64,0,0,0,8.74,2.69,4.62,4.62,0,0,0,3.45-1.14c.84-.92.69-2.72-.49-3.1a5.68,5.68,0,0,0,3.46,0C573.06,117.65,573.78,116.17,573,115.25Z" style="fill: rgb(38, 50, 56); transform-origin: 561.634px 112.204px;" id="ellfucw6h6gj" class="animable"></path><path d="M544.2,108A13.6,13.6,0,0,0,533.75,109a8.07,8.07,0,0,0-13.92,2.13A6.82,6.82,0,0,0,513,122.79a8.78,8.78,0,0,0-3.67,13.34c-2.63,1.27-3.08,4.83-2.69,7.72s1.22,6-.08,8.61c-1,2-3.07,3.27-4.48,5s-1.91,4.78,0,6a6.1,6.1,0,1,0,2.2,12,7.5,7.5,0,0,0,.8,7.17,12,12,0,0,0,6,4.37,17.92,17.92,0,0,0,19.57-5.52l21.58-66.73A13.6,13.6,0,0,0,544.2,108Z" style="fill: rgb(38, 50, 56); transform-origin: 524.654px 146.925px;" id="elx21ul84hyn" class="animable"></path><path d="M554.47,126.44l.29-3.6-21.4-5.42c-6.64-1.11-14.26,5.15-15.08,11.82-.92,7.42-1.74,16.5-1.2,22.11,1.1,11.27,9.58,13.21,9.58,13.21L526,175.65l24.67,1.79Z" style="fill: rgb(174, 116, 97); transform-origin: 535.834px 147.366px;" id="el5nersvdpmd7" class="animable"></path><path d="M520.89,139.12a1.43,1.43,0,0,0,1.3,1.52,1.36,1.36,0,0,0,1.55-1.2,1.44,1.44,0,0,0-1.29-1.53A1.38,1.38,0,0,0,520.89,139.12Z" style="fill: rgb(38, 50, 56); transform-origin: 522.315px 139.276px;" id="ela11010cb4fk" class="animable"></path><path d="M520.35,134.13c.17.19,1.3-.54,2.84-.45s2.63.94,2.81.76-.08-.43-.55-.81a3.88,3.88,0,0,0-2.23-.84,3.73,3.73,0,0,0-2.27.59C520.45,133.71,520.27,134,520.35,134.13Z" style="fill: rgb(38, 50, 56); transform-origin: 523.195px 133.623px;" id="el3yigekrnham" class="animable"></path><path d="M534.88,139.88a1.43,1.43,0,0,0,1.3,1.52,1.36,1.36,0,0,0,1.55-1.2,1.44,1.44,0,0,0-1.29-1.53A1.38,1.38,0,0,0,534.88,139.88Z" style="fill: rgb(38, 50, 56); transform-origin: 536.305px 140.036px;" id="el3qqxter1xxy" class="animable"></path><path d="M535.48,135.33c.17.19,1.31-.54,2.84-.45s2.63.94,2.81.76-.07-.43-.55-.82a4,4,0,0,0-2.23-.83,3.8,3.8,0,0,0-2.27.58C535.58,134.91,535.4,135.24,535.48,135.33Z" style="fill: rgb(38, 50, 56); transform-origin: 538.325px 134.824px;" id="elar2fg1yoet" class="animable"></path><path d="M529.2,146.42a9.8,9.8,0,0,0-2.47-.6c-.39-.07-.76-.17-.81-.44a1.94,1.94,0,0,1,.33-1.15l1.35-2.93c1.87-4.17,3.25-7.61,3.08-7.68s-1.82,3.25-3.69,7.41c-.46,1-.89,2-1.3,2.95a2.29,2.29,0,0,0-.3,1.53,1,1,0,0,0,.62.62,2.48,2.48,0,0,0,.66.13A10.46,10.46,0,0,0,529.2,146.42Z" style="fill: rgb(38, 50, 56); transform-origin: 528.029px 140.028px;" id="elhsbp7nzasui" class="animable"></path><path d="M526.66,164.59a29.7,29.7,0,0,0,15.58-3.09s-4.25,7.59-15.74,5.87Z" style="fill: rgb(111, 68, 57); transform-origin: 534.37px 164.562px;" id="elbwco0if6jx7" class="animable"></path><path d="M535.84,130c.15.42,1.69.22,3.5.44s3.28.71,3.52.33c.11-.18-.15-.57-.74-1a5.79,5.79,0,0,0-2.6-.91,5.87,5.87,0,0,0-2.75.32C536.11,129.48,535.77,129.81,535.84,130Z" style="fill: rgb(38, 50, 56); transform-origin: 539.358px 129.863px;" id="el7k64v368owv" class="animable"></path><path d="M520.73,130.31c.24.37,1.33.08,2.61.15s2.34.4,2.61,0c.12-.17,0-.53-.47-.9a3.78,3.78,0,0,0-4.21-.16C520.79,129.78,520.62,130.13,520.73,130.31Z" style="fill: rgb(38, 50, 56); transform-origin: 523.346px 129.745px;" id="elhjwlaoyqv2" class="animable"></path><path d="M518.32,121.21a18.73,18.73,0,0,1,10.19-6.73l18.08,2.27,1.54,0c.34-1.14,2.26-1.74,2.26-1.74,1.7-1.3,7.59-1.37,11.69,2.92,1.48,1.54,2.53,5.43,2.56,7.57,0,.81-.85,1.92-.17,2.37a21.92,21.92,0,0,0,2.46.17c4.6,1,7.47,5.09,6.64,11.18a3.25,3.25,0,0,0-.1.92,2.43,2.43,0,0,0,.81,1.2,8,8,0,0,1,1.27,8.88,9.22,9.22,0,0,0-1.23,2.67c-.28,1.73,1,3.28,2,4.75,3,4.38,3.58,10.74.12,14.72-.84,1-1.93,1.84-2.24,3.08a7.86,7.86,0,0,0-.1,1.88c0,3.18-1.65,6.74-4.76,7.41-1.73.37-3.83-.12-5.06,1.15a7.59,7.59,0,0,0-1.1,2,6.46,6.46,0,0,1-7.43,3.2c-2.81-.87-3.74-12.25-3.33-15.16-3.4-1.23-5.91-1.45-5.75-5.06,0,0,.52-6.22-.49-9.25s1-9.47,2.17-12.6-.22-10.41-.53-13.31a10.45,10.45,0,0,1,.24-2.48h0c.13-.71.29-1.5.49-2.35s.72-5,.71-5.76c-.05-2.74-3.45-1.28-6-.4a6.84,6.84,0,0,1-2,.35,6.92,6.92,0,0,1-5.58-2.65,10,10,0,0,1-9.86,2.69,26.76,26.76,0,0,1-4.67,5.44,9.17,9.17,0,0,1-6.62,2.28A18.77,18.77,0,0,1,518.32,121.21Z" style="fill: rgb(38, 50, 56); transform-origin: 546.669px 152.772px;" id="elja0of0ij9f8" class="animable"></path><path d="M530.32,150.15a2.75,2.75,0,0,1,2.39-1.13,2.46,2.46,0,0,1,1.76.84,1.55,1.55,0,0,1,.21,1.79,1.81,1.81,0,0,1-1.95.6,5.78,5.78,0,0,1-2-1.05,1.9,1.9,0,0,1-.46-.43.5.5,0,0,1,0-.56" style="fill: rgb(111, 68, 57); transform-origin: 532.528px 150.673px;" id="elp5rwupoykj8" class="animable"></path><path d="M534,147.37c-.25,0-.17,1.64-1.52,2.87s-3.1,1.14-3.1,1.37.41.3,1.15.28a4,4,0,0,0,2.59-1,3.54,3.54,0,0,0,1.16-2.4C534.31,147.75,534.11,147.35,534,147.37Z" style="fill: rgb(38, 50, 56); transform-origin: 531.832px 149.631px;" id="el70rka68rqxk" class="animable"></path><path d="M499.69,441.49l2,21.19s-23.1,8.63-23.35,12.9l43.67.12,0-3.19-1.83-10.9-2.7-21.18Z" style="fill: rgb(69, 90, 100); transform-origin: 500.175px 458.065px;" id="elhl0rwjm06p" class="animable"></path><path d="M514.87,459.4a1.82,1.82,0,0,1,1.27,2.08,1.75,1.75,0,0,1-2,1.27,1.92,1.92,0,0,1-1.33-2.21,1.82,1.82,0,0,1,2.28-1.09" style="fill: rgb(224, 224, 224); transform-origin: 514.472px 461.067px;" id="el3ggne9np197" class="animable"></path><path d="M522.05,475.7l0-3.19-41.88.8s-2,.87-1.76,2.27Z" style="fill: rgb(38, 50, 56); transform-origin: 500.22px 474.105px;" id="el22slm2i794t" class="animable"></path><path d="M501,462.46c0,.22,1.1.31,2.18,1s1.65,1.62,1.85,1.53-.13-1.35-1.45-2.17S501,462.26,501,462.46Z" style="fill: rgb(38, 50, 56); transform-origin: 503.042px 463.626px;" id="el4peo9r82e7i" class="animable"></path><path d="M496.32,464.41c-.05.21.9.58,1.64,1.5s1,1.9,1.18,1.89.35-1.25-.59-2.38S496.33,464.2,496.32,464.41Z" style="fill: rgb(38, 50, 56); transform-origin: 497.799px 466.06px;" id="elupka84acb9e" class="animable"></path><path d="M493.67,470c.2.05.5-1-.06-2.23s-1.59-1.67-1.68-1.49.54.82,1,1.81S493.46,470,493.67,470Z" style="fill: rgb(38, 50, 56); transform-origin: 492.927px 468.122px;" id="el9ssiu2vb36" class="animable"></path><path d="M499.45,457.36c.1.2,1.1-.1,2.33,0s2.2.47,2.31.28-.81-1-2.27-1S499.35,457.19,499.45,457.36Z" style="fill: rgb(38, 50, 56); transform-origin: 501.771px 457.167px;" id="elldfap2v4uwl" class="animable"></path><path d="M553.35,442.09l1.87,20.83s-22.74,8.34-23,12.53l42.89.38v-3.14L573.36,462l-2.52-20.82Z" style="fill: rgb(69, 90, 100); transform-origin: 553.665px 458.505px;" id="elmaq485oggwh" class="animable"></path><path d="M568.15,459.77a1.8,1.8,0,0,1,1.24,2.05,1.73,1.73,0,0,1-2,1.24,1.9,1.9,0,0,1-1.29-2.18,1.79,1.79,0,0,1,2.25-1.05" style="fill: rgb(224, 224, 224); transform-origin: 567.742px 461.413px;" id="elpgoaz1kobn" class="animable"></path><path d="M575.1,475.83v-3.14l-41.15.54s-2,.84-1.74,2.22Z" style="fill: rgb(38, 50, 56); transform-origin: 553.643px 474.26px;" id="ele377g14u75l" class="animable"></path><path d="M554.51,462.7c0,.21,1.08.31,2.13,1s1.61,1.6,1.81,1.52-.12-1.33-1.41-2.14S554.47,462.5,554.51,462.7Z" style="fill: rgb(38, 50, 56); transform-origin: 556.507px 463.867px;" id="elxlfipjn8uj" class="animable"></path><path d="M549.9,464.58c0,.21.88.58,1.6,1.49s.93,1.87,1.15,1.86.35-1.22-.57-2.33S549.91,464.38,549.9,464.58Z" style="fill: rgb(38, 50, 56); transform-origin: 551.355px 466.214px;" id="eliunw8ctzdq" class="animable"></path><path d="M547.26,470.09c.2,0,.5-1,0-2.2s-1.55-1.65-1.64-1.47.52.81,1,1.78S547.05,470.06,547.26,470.09Z" style="fill: rgb(38, 50, 56); transform-origin: 546.572px 468.236px;" id="elhi47vjoks7n" class="animable"></path><path d="M553,457.68c.09.2,1.07-.09,2.29,0s2.15.47,2.26.29-.79-.95-2.22-1S552.92,457.51,553,457.68Z" style="fill: rgb(38, 50, 56); transform-origin: 555.277px 457.492px;" id="elj4klsmm4gv" class="animable"></path><path d="M498.75,257.22s-10.35,30-10.71,52.27-.71,57.76,3.93,96.87,6.78,54.83,6.78,54.83H522.3a462.09,462.09,0,0,0,2.15-46.42c-.36-21.93-2.08-28.88,0-53s5.44-38.61,8.95-45.92c0,0,9.72-11.56,10.43-27.41A77.21,77.21,0,0,0,539,259Z" style="fill: rgb(38, 50, 56); transform-origin: 515.859px 359.205px;" id="elcjv5n1b1ymc" class="animable"></path><path d="M519.68,299.27c.39,1.21,7.38,50.35,12.48,72s10.77,27.42,11.77,45c1.14,20.28,6.71,44.85,6.71,44.85h25.08s-3.53-37.48-7.05-66.79-8.62-65.42-7.84-76.26,2.74-24.22,0-39.41-8.67-19.18-8.67-19.18l-21.28-1Z" style="fill: rgb(38, 50, 56); transform-origin: 547.7px 359.8px;" id="elelcmnv072c7" class="animable"></path><path d="M543.29,271.17a5.59,5.59,0,0,1,.39.76,15.57,15.57,0,0,1,.85,2.31,30.75,30.75,0,0,1,.83,9,59.57,59.57,0,0,1-2.07,13.22,42.52,42.52,0,0,1-2.73,7.44,52.66,52.66,0,0,1-4.54,7.19c-3.4,4.7-5.09,10.05-6.36,14.88a104.75,104.75,0,0,0-2.38,13.11c-.47,3.77-.74,6.84-.95,9-.1,1-.19,1.83-.25,2.43a4.84,4.84,0,0,1-.12.85,5,5,0,0,1,0-.85c0-.61.08-1.43.14-2.45.15-2.12.37-5.2.79-9a101.25,101.25,0,0,1,2.28-13.19,64.08,64.08,0,0,1,2.37-7.56,38.29,38.29,0,0,1,1.75-3.82,39.14,39.14,0,0,1,2.28-3.67,53.15,53.15,0,0,0,4.5-7.13,41.87,41.87,0,0,0,2.74-7.34A60.16,60.16,0,0,0,545,283.2a31.81,31.81,0,0,0-.65-8.91,17.72,17.72,0,0,0-.75-2.32A4.65,4.65,0,0,1,543.29,271.17Z" style="fill: rgb(69, 90, 100); transform-origin: 535.675px 311.265px;" id="elui9kcgoekn9" class="animable"></path><path d="M443.58,196c4.32,2.58,12.13,5,12.13,5l8.76-7s-6.26-11.44-8.28-14.69a16.71,16.71,0,0,1-1.63-3.46c-.68-2.44-2.47-1.4-2.8.52a10.46,10.46,0,0,0,.55,3.09,9.08,9.08,0,0,1,.61,3.71s-.64-.54-2.22-1.6-7.51-6-9.95-8c-3.66-3-5.5-1.15-5,0,.6,1.45,9.67,7.81,9.35,8.89,0,0-1.75,1-2,2.13a5.86,5.86,0,0,0,0,2.25s-1.64.16-2.07,1.21a4.1,4.1,0,0,0,.12,2.54s-1.52.14-1.69,1S440.32,194.07,443.58,196Z" style="fill: rgb(174, 116, 97); transform-origin: 450.07px 186.471px;" id="el5nxsf5v2pq6" class="animable"></path><path d="M463,190.88c.13.39,18.78,19.48,18.78,19.48s15.56-17.52,20.29-24S514,172,520.19,170.55,535,173.06,535,173.06l-11,22.52-13.83,19s-14.94,18.77-22.05,21.67S474.07,235,471,231.84s-21-30.45-21-30.45Z" style="fill: #DC2626; transform-origin: 492.5px 203.731px;" id="ellntirnwo0sp" class="animable"></path><path d="M566.89,178,524,170.55s-11.91,21-16.37,43-9.53,44.05-9.53,44.05l39.63,4.89a45.64,45.64,0,0,0,12.41-.17l4.13-.63-3.39-14c5.66-14.15,9.8-26.23,12.25-36.21C568.44,189.86,566.89,178,566.89,178Z" style="fill: #DC2626; transform-origin: 532.6px 216.692px;" id="elkaie19e5n7" class="animable"></path><path d="M523,199a6.72,6.72,0,0,1-.7.94c-.55.66-1.22,1.48-2,2.45-1.7,2.08-4,5-6.56,8.18s-4.9,6.08-6.68,8.09c-.88,1-1.62,1.82-2.14,2.36a4.43,4.43,0,0,1-.85.8,4.73,4.73,0,0,1,.7-.94l2-2.46c1.7-2.07,4-5,6.55-8.18s4.91-6.07,6.68-8.09c.89-1,1.62-1.81,2.15-2.35A4.43,4.43,0,0,1,523,199Z" style="fill: rgb(38, 50, 56); transform-origin: 513.535px 210.41px;" id="el8vhg8p5ikgi" class="animable"></path><path d="M550.21,248.36a12.15,12.15,0,0,1-2.7.77,40.05,40.05,0,0,1-13.46.52,11.08,11.08,0,0,1-2.74-.57,23.36,23.36,0,0,1,2.78.2,54.49,54.49,0,0,0,6.69.16,56.84,56.84,0,0,0,6.67-.67A18.55,18.55,0,0,1,550.21,248.36Z" style="fill: rgb(38, 50, 56); transform-origin: 540.76px 249.175px;" id="elctrx6j4u10t" class="animable"></path><path d="M481.37,221.73a27.35,27.35,0,0,1-.18-5.43,29.14,29.14,0,0,1,.33-5.43,27.77,27.77,0,0,1,.19,5.43A29.51,29.51,0,0,1,481.37,221.73Z" style="fill: rgb(38, 50, 56); transform-origin: 481.447px 216.3px;" id="elf5sp0pa3f35" class="animable"></path><g id="el7cadirn7meb"><g style="opacity: 0.3; transform-origin: 552.233px 193.523px;" class="animable" id="elijcqmudaksc"><path d="M565.51,182.86l-26.81-2.39a4.47,4.47,0,0,0,2.84,5.84,8.68,8.68,0,0,0,6.89,12.94,8,8,0,0,1,2.13.27c1.49.53,2.2,2.16,3.09,3.47a8.12,8.12,0,0,0,5,3.46,5.91,5.91,0,0,0,5.64-1.87c1.31-1.6,1.53-3.8,1.63-5.87A103.57,103.57,0,0,0,565.51,182.86Z" id="elg6niwzg5etg" class="animable" style="transform-origin: 552.233px 193.523px;"></path></g></g><g id="el3xvi95ggau5"><g style="opacity: 0.3; transform-origin: 513.588px 210.19px;" class="animable" id="elt9r15b2l84"><path d="M506,219.87a18.95,18.95,0,0,0,15.16-19.36C515.54,206.59,510.8,214.39,506,219.87Z" id="ely6n8lag2nv" class="animable" style="transform-origin: 513.588px 210.19px;"></path></g></g><path d="M571.67,166.33l-22.88-25.46c.84,6.46-1.6,12.89-4.52,18.71-1.67,3.32-3.53,7.26-1.78,10.53a21.62,21.62,0,0,0-3.78,5.16,7.35,7.35,0,0,0-.24,6.21,4.48,4.48,0,0,0,5.32,2.41,7,7,0,0,0,9.63,8.66,11,11,0,0,0,4.28,6.66,7.32,7.32,0,0,0,7.66.5,5.53,5.53,0,0,0,2.26-7c5-1.11,8.18-6.54,8.33-11.69S573.93,171,571.67,166.33Z" style="fill: rgb(38, 50, 56); transform-origin: 556.927px 170.715px;" id="elq0jm8qyq6hp" class="animable"></path><path d="M524.35,124.35a1.22,1.22,0,0,1-.37.15,3.3,3.3,0,0,1-1.17.08,4.61,4.61,0,0,1-3.46-2.38,4.5,4.5,0,0,1-.48-3,5.94,5.94,0,0,1,1.57-3,6.5,6.5,0,0,1,3.28-1.88,8.71,8.71,0,0,1,4.06,0,11.31,11.31,0,0,1,2.23.79l-.35.14a9.34,9.34,0,0,1,4.79-4.94,8.81,8.81,0,0,1,5.52-.58,9.06,9.06,0,0,1,3.4,1.5,7,7,0,0,1,.76.64c.16.17.24.26.23.27s-.38-.29-1.1-.75a9.34,9.34,0,0,0-3.36-1.32,8.64,8.64,0,0,0-5.26.66,9,9,0,0,0-4.51,4.71l-.1.25-.25-.12a11.53,11.53,0,0,0-2.12-.75,8.51,8.51,0,0,0-3.82,0,6.12,6.12,0,0,0-3.05,1.72,5.63,5.63,0,0,0-1.5,2.8,4.12,4.12,0,0,0,.38,2.7,4.5,4.5,0,0,0,3.17,2.36A5.47,5.47,0,0,0,524.35,124.35Z" style="fill: rgb(69, 90, 100); transform-origin: 531.577px 117.063px;" id="elhppe6zwisrc" class="animable"></path><path d="M572.85,140.36s.2-.47.44-1.35a9,9,0,0,0,.2-3.82,8.21,8.21,0,0,0-2.68-4.93,8.69,8.69,0,0,0-6.55-2.14l-.38,0,.11-.37a10.4,10.4,0,0,0,.39-2.35,10.68,10.68,0,0,0-2.48-7.37,10.32,10.32,0,0,0-5.51-3.3,11.06,11.06,0,0,0-4.39-.13c-1,.18-1.59.4-1.61.35a1.49,1.49,0,0,1,.39-.19,8.51,8.51,0,0,1,1.17-.36,10.78,10.78,0,0,1,10.31,3.31,11,11,0,0,1,2.64,7.72,10.37,10.37,0,0,1-.42,2.47l-.27-.33a9.08,9.08,0,0,1,6.91,2.3,8.52,8.52,0,0,1,2.72,5.23,8.68,8.68,0,0,1-.37,3.93,5.88,5.88,0,0,1-.42,1C572.94,140.26,572.87,140.37,572.85,140.36Z" style="fill: rgb(69, 90, 100); transform-origin: 562.155px 127.256px;" id="eleisvpzbjeu" class="animable"></path><path d="M537.14,123.49a1.54,1.54,0,0,1-.64-.37,4.5,4.5,0,0,1-1.22-1.6,5.21,5.21,0,0,1-.41-3,5.6,5.6,0,0,1,1.79-3.21,6.39,6.39,0,0,1,3.32-1.58,7.41,7.41,0,0,1,4.82,1c.4.25.59.43.57.46a19.09,19.09,0,0,0-2.5-.9,7.42,7.42,0,0,0-2.81-.08,6.23,6.23,0,0,0-3,1.49,5.34,5.34,0,0,0-1.67,2.91,5.11,5.11,0,0,0,.28,2.75A6.43,6.43,0,0,0,537.14,123.49Z" style="fill: rgb(69, 90, 100); transform-origin: 540.088px 118.577px;" id="eljs1bpzb7u1" class="animable"></path><path d="M551,184a1,1,0,0,1-.32-.2,5.53,5.53,0,0,1-.81-.69,9.42,9.42,0,0,1-2.31-9.16,9.64,9.64,0,0,1,4.5-5.51,9,9,0,0,1,2.81-1l-.15.43A7.26,7.26,0,0,1,553,162a6.75,6.75,0,0,1,2.38-4.26,7,7,0,0,1,2.91-1.47,4.59,4.59,0,0,1,.87-.12c.2,0,.31,0,.31,0s-.41.08-1.13.29A7.23,7.23,0,0,0,555.6,158a6.52,6.52,0,0,0-2.16,4.07,6.87,6.87,0,0,0,1.67,5.41l.31.34-.45.09a9,9,0,0,0-2.65,1,9.29,9.29,0,0,0-4.29,5.2,9.08,9.08,0,0,0,.09,5.56,10,10,0,0,0,1.9,3.32C550.63,183.62,551,183.93,551,184Z" style="fill: rgb(69, 90, 100); transform-origin: 553.334px 170.075px;" id="el25ntar3nhlu" class="animable"></path><path d="M550.63,128l-.71-3.23a23.57,23.57,0,0,0-2.3,15.16c.44,2.37,1.23,4.93.2,7.11-.7,1.5-2.14,2.52-3,4-1,1.81-.27,6.58-.54,7.51-.61,2.14-2.68,3.51-3.17,6.1s.13,5.7,2.45,6.94c4.38-7.21,8.85-14.7,9.88-23.07C554.32,141.53,552.74,134.57,550.63,128Z" style="fill: rgb(38, 50, 56); transform-origin: 547.321px 148.18px;" id="eljslh18k4bzb" class="animable"></path><path d="M563.89,145.23s-.13,0-.38,0a8.26,8.26,0,0,1-1.06-.12,7.24,7.24,0,0,1-3.58-1.61,5.58,5.58,0,0,1-1.56-2.27,4.22,4.22,0,0,1,.05-3.18,3.89,3.89,0,0,1,2.7-2.25,2.85,2.85,0,0,1,1.93.28,1.79,1.79,0,0,1,.93,1.81,1.48,1.48,0,0,1-.59,1,1.89,1.89,0,0,1-1,.31,3.8,3.8,0,0,1-1.87-.44,8.77,8.77,0,0,1-2.73-2.16,8.84,8.84,0,0,1-1.48-9.26,7.33,7.33,0,0,1,.5-.94c.13-.21.21-.31.22-.3s-.22.46-.53,1.32a9.38,9.38,0,0,0-.51,3.77,8.78,8.78,0,0,0,4.76,7.11,3.25,3.25,0,0,0,1.61.39,1.08,1.08,0,0,0,1.11-.83,1.31,1.31,0,0,0-.68-1.29,2.36,2.36,0,0,0-1.57-.22,3.43,3.43,0,0,0-2.36,1.95,3.83,3.83,0,0,0-.09,2.84,5.34,5.34,0,0,0,1.41,2.14,7.56,7.56,0,0,0,3.37,1.69C563.38,145.15,563.89,145.19,563.89,145.23Z" style="fill: rgb(69, 90, 100); transform-origin: 559.22px 135.665px;" id="elv5k7w42sqnj" class="animable"></path></g><defs>     <filter id="active" height="200%">         <feMorphology in="SourceAlpha" result="DILATED" operator="dilate" radius="2"></feMorphology>                <feFlood flood-color="#32DFEC" flood-opacity="1" result="PINK"></feFlood>        <feComposite in="PINK" in2="DILATED" operator="in" result="OUTLINE"></feComposite>        <feMerge>            <feMergeNode in="OUTLINE"></feMergeNode>            <feMergeNode in="SourceGraphic"></feMergeNode>        </feMerge>    </filter>    <filter id="hover" height="200%">        <feMorphology in="SourceAlpha" result="DILATED" operator="dilate" radius="2"></feMorphology>                <feFlood flood-color="#ff0000" flood-opacity="0.5" result="PINK"></feFlood>        <feComposite in="PINK" in2="DILATED" operator="in" result="OUTLINE"></feComposite>        <feMerge>            <feMergeNode in="OUTLINE"></feMergeNode>            <feMergeNode in="SourceGraphic"></feMergeNode>        </feMerge>            <feColorMatrix type="matrix" values="0   0   0   0   0                0   1   0   0   0                0   0   0   0   0                0   0   0   1   0 "></feColorMatrix>    </filter></defs></svg>